<svg xmlns="http://www.w3.org/2000/svg" viewBox="0 0 1215 969" xmlns:c2pa="http://c2pa.org/manifest"><metadata><c2pa:manifest>AAAWgmp1bWIAAAAeanVtZGMycGEAEQAQgAAAqgA4m3EDYzJwYQAAABZcanVtYgAAAEdqdW1kYzJtYQARABCAAACqADibcQN1cm46YzJwYTplNThiYzMwMi0zNjk1LTRmMTktODUwNS05ODU5YWQyZTFkYmUAAAADl2p1bWIAAAApanVtZGMyYXMAEQAQgAAAqgA4m3EDYzJwYS5hc3NlcnRpb25zAAAAALxqdW1iAAAARGp1bWRjYm9yABEAEIAAAKoAOJtxE2MycGEuaW5ncmVkaWVudC52MwAAAAAYYzJzaDSCyLejwk5MItDrJVpd+c4AAABwY2JvcqNpZGM6Zm9ybWF0bWltYWdlL3N2Zyt4bWxqaW5zdGFuY2VJRHgseG1wOmlpZDo2YjkxNWQ3MC01OGM3LTRhODItOGQ2Ni1kOTMxNTM2Nzk5Y2VscmVsYXRpb25zaGlwaHBhcmVudE9mAAAB4mp1bWIAAABBanVtZGNib3IAEQAQgAAAqgA4m3ETYzJwYS5hY3Rpb25zLnYyAAAAABhjMnNo10yGyxN6jk82V+ZCvtnOGQAAAZljYm9yomdhY3Rpb25zgqJmYWN0aW9ua2MycGEub3BlbmVkanBhcmFtZXRlcnOha2luZ3JlZGllbnRzgaJjdXJseC1zZWxmI2p1bWJmPWMycGEuYXNzZXJ0aW9ucy9jMnBhLmluZ3JlZGllbnQudjNkaGFzaFggbM9bL4wtvhavDkAfVrmbhqgZeZ06oXhzraz2j18yKOqkZmFjdGlvbngdY29tLmFudGhyb3BpYy5jbGF1ZGUucHJvdmlkZWRqcGFyYW1ldGVyc6F4H2NvbS5hbnRocm9waWMub3JpZ2luLWNvbmZpZGVuY2VndW5rbm93bmtkZXNjcmlwdGlvbnhmQ2xhdWRlIHByb3ZpZGVkIHRoaXMgZmlsZSBhdCB0aGUgcmVxdWVzdCBvZiBhIHVzZXIgYW5kIG1heSBoYXZlIGNyZWF0ZWQgb3IgbW9kaWZpZWQgdGhlIGZpbGUgY29udGVudHMubXNvZnR3YXJlQWdlbnShZG5hbWVmQ2xhdWRlcmFsbEFjdGlvbnNJbmNsdWRlZPUAAADIanVtYgAAAEBqdW1kY2JvcgARABCAAACqADibcRNjMnBhLmhhc2guZGF0YQAAAAAYYzJzaMTji4N3dwNQgDo/FjNrEt4AAACAY2JvcqVjYWxnZnNoYTI1NmNwYWRNAAAAAAAAAAAAAAAAAGRoYXNoWCB40tTMVYMVaOpmkzUHx8ipe67BzJru8U+No+A3eT0ypGRuYW1lbmp1bWJmIG1hbmlmZXN0amV4Y2x1c2lvbnOBomVzdGFydBinZmxlbmd0aBkeBAAAAj5qdW1iAAAAJ2p1bWRjMmNsABEAEIAAAKoAOJtxA2MycGEuY2xhaW0udjIAAAACD2Nib3KlY2FsZ2ZzaGEyNTZpc2lnbmF0dXJleE1zZWxmI2p1bWJmPS9jMnBhL3VybjpjMnBhOmU1OGJjMzAyLTM2OTUtNGYxOS04NTA1LTk4NTlhZDJlMWRiZS9jMnBhLnNpZ25hdHVyZWppbnN0YW5jZUlEeCx4bXA6aWlkOjY2ZTBhN2MxLWQ5NzItNDVkZS1hNzU5LThhZjJjNDVkMThkZnJjcmVhdGVkX2Fzc2VydGlvbnODomN1cmx4LXNlbGYjanVtYmY9YzJwYS5hc3NlcnRpb25zL2MycGEuaW5ncmVkaWVudC52M2RoYXNoWCBsz1svjC2+Fq8OQB9WuZuGqBl5nTqheHOtrPaPXzIo6qJjdXJseCpzZWxmI2p1bWJmPWMycGEuYXNzZXJ0aW9ucy9jMnBhLmFjdGlvbnMudjJkaGFzaFggugsiMxAx0uzjvta69dvSTws4XstaNcOumkyRZkrI/WiiY3VybHgpc2VsZiNqdW1iZj1jMnBhLmFzc2VydGlvbnMvYzJwYS5oYXNoLmRhdGFkaGFzaFggZ4P4PcuXjq0WboankAUMnzfdIMfNCoD6SEULxNuTzfF0Y2xhaW1fZ2VuZXJhdG9yX2luZm+jZG5hbWVvQW50aHJvcGljIEZpbGVzZ3ZlcnNpb25lMS4wLjBrc3BlY1ZlcnNpb25lMi40LjAAABA4anVtYgAAAChqdW1kYzJjcwARABCAAACqADibcQNjMnBhLnNpZ25hdHVyZQAAABAIY2JvctKEWQISogEmGCFZAgowggIGMIIBjaADAgECAhRA5aAK7sI50L64g/oGQgU9Z1UTADAKBggqhkjOPQQDAzBJMRcwFQYDVQQKEw5BbnRocm9waWMsIFBCQzEuMCwGA1UEAxMlQW50aHJvcGljIENvbnRlbnQgQ3JlZGVudGlhbHMgUm9vdCBDQTAeFw0yNjA4MDcxODQzNTZaFw0yODA4MDYxOTQzNTZaMEQxFzAVBgNVBAoTDkFudGhyb3BpYywgUEJDMSkwJwYDVQQDEyBBbnRocm9waWMgQ2xhdWRlIENvbnRlbnQgU2lnbmluZzBZMBMGByqGSM49AgEGCCqGSM49AwEHA0IABJh6CmvLUBgFFNU0vUKlOVtE6djd17L5SuwX0LemFisBM3dkd/3cyjxFA3Qo5S46fX0/ihY0VZ7mfb9KF703t5OjWDBWMA4GA1UdDwEB/wQEAwIHgDAVBgNVHSUEDjAMBgorBgEEAYPoXgIBMAwGA1UdEwEB/wQCMAAwHwYDVR0jBBgwFoAUzlHiBIFOZFsj+OPEz5o+nMHXXMIwCgYIKoZIzj0EAwMDZwAwZAIwMXMdFJ4BetLLVY7ORuE9noqbbAZOZn/aArXyTwFAZfKrPzxF2vPoJNf1+UCdg1XGAjBwX1zd9WGqYkqmL5SFqw1QySjr1zJfpJM9+1rdDwSPLMOPOjKuiXjoU/pUUeG9RwmhY3BhZFkNngAAAAAAAAAAAAAAAAAAAAAAAAAAAAAAAAAAAAAAAAAAAAAAAAAAAAAAAAAAAAAAAAAAAAAAAAAAAAAAAAAAAAAAAAAAAAAAAAAAAAAAAAAAAAAAAAAAAAAAAAAAAAAAAAAAAAAAAAAAAAAAAAAAAAAAAAAAAAAAAAAAAAAAAAAAAAAAAAAAAAAAAAAAAAAAAAAAAAAAAAAAAAAAAAAAAAAAAAAAAAAAAAAAAAAAAAAAAAAAAAAAAAAAAAAAAAAAAAAAAAAAAAAAAAAAAAAAAAAAAAAAAAAAAAAAAAAAAAAAAAAAAAAAAAAAAAAAAAAAAAAAAAAAAAAAAAAAAAAAAAAAAAAAAAAAAAAAAAAAAAAAAAAAAAAAAAAAAAAAAAAAAAAAAAAAAAAAAAAAAAAAAAAAAAAAAAAAAAAAAAAAAAAAAAAAAAAAAAAAAAAAAAAAAAAAAAAAAAAAAAAAAAAAAAAAAAAAAAAAAAAAAAAAAAAAAAAAAAAAAAAAAAAAAAAAAAAAAAAAAAAAAAAAAAAAAAAAAAAAAAAAAAAAAAAAAAAAAAAAAAAAAAAAAAAAAAAAAAAAAAAAAAAAAAAAAAAAAAAAAAAAAAAAAAAAAAAAAAAAAAAAAAAAAAAAAAAAAAAAAAAAAAAAAAAAAAAAAAAAAAAAAAAAAAAAAAAAAAAAAAAAAAAAAAAAAAAAAAAAAAAAAAAAAAAAAAAAAAAAAAAAAAAAAAAAAAAAAAAAAAAAAAAAAAAAAAAAAAAAAAAAAAAAAAAAAAAAAAAAAAAAAAAAAAAAAAAAAAAAAAAAAAAAAAAAAAAAAAAAAAAAAAAAAAAAAAAAAAAAAAAAAAAAAAAAAAAAAAAAAAAAAAAAAAAAAAAAAAAAAAAAAAAAAAAAAAAAAAAAAAAAAAAAAAAAAAAAAAAAAAAAAAAAAAAAAAAAAAAAAAAAAAAAAAAAAAAAAAAAAAAAAAAAAAAAAAAAAAAAAAAAAAAAAAAAAAAAAAAAAAAAAAAAAAAAAAAAAAAAAAAAAAAAAAAAAAAAAAAAAAAAAAAAAAAAAAAAAAAAAAAAAAAAAAAAAAAAAAAAAAAAAAAAAAAAAAAAAAAAAAAAAAAAAAAAAAAAAAAAAAAAAAAAAAAAAAAAAAAAAAAAAAAAAAAAAAAAAAAAAAAAAAAAAAAAAAAAAAAAAAAAAAAAAAAAAAAAAAAAAAAAAAAAAAAAAAAAAAAAAAAAAAAAAAAAAAAAAAAAAAAAAAAAAAAAAAAAAAAAAAAAAAAAAAAAAAAAAAAAAAAAAAAAAAAAAAAAAAAAAAAAAAAAAAAAAAAAAAAAAAAAAAAAAAAAAAAAAAAAAAAAAAAAAAAAAAAAAAAAAAAAAAAAAAAAAAAAAAAAAAAAAAAAAAAAAAAAAAAAAAAAAAAAAAAAAAAAAAAAAAAAAAAAAAAAAAAAAAAAAAAAAAAAAAAAAAAAAAAAAAAAAAAAAAAAAAAAAAAAAAAAAAAAAAAAAAAAAAAAAAAAAAAAAAAAAAAAAAAAAAAAAAAAAAAAAAAAAAAAAAAAAAAAAAAAAAAAAAAAAAAAAAAAAAAAAAAAAAAAAAAAAAAAAAAAAAAAAAAAAAAAAAAAAAAAAAAAAAAAAAAAAAAAAAAAAAAAAAAAAAAAAAAAAAAAAAAAAAAAAAAAAAAAAAAAAAAAAAAAAAAAAAAAAAAAAAAAAAAAAAAAAAAAAAAAAAAAAAAAAAAAAAAAAAAAAAAAAAAAAAAAAAAAAAAAAAAAAAAAAAAAAAAAAAAAAAAAAAAAAAAAAAAAAAAAAAAAAAAAAAAAAAAAAAAAAAAAAAAAAAAAAAAAAAAAAAAAAAAAAAAAAAAAAAAAAAAAAAAAAAAAAAAAAAAAAAAAAAAAAAAAAAAAAAAAAAAAAAAAAAAAAAAAAAAAAAAAAAAAAAAAAAAAAAAAAAAAAAAAAAAAAAAAAAAAAAAAAAAAAAAAAAAAAAAAAAAAAAAAAAAAAAAAAAAAAAAAAAAAAAAAAAAAAAAAAAAAAAAAAAAAAAAAAAAAAAAAAAAAAAAAAAAAAAAAAAAAAAAAAAAAAAAAAAAAAAAAAAAAAAAAAAAAAAAAAAAAAAAAAAAAAAAAAAAAAAAAAAAAAAAAAAAAAAAAAAAAAAAAAAAAAAAAAAAAAAAAAAAAAAAAAAAAAAAAAAAAAAAAAAAAAAAAAAAAAAAAAAAAAAAAAAAAAAAAAAAAAAAAAAAAAAAAAAAAAAAAAAAAAAAAAAAAAAAAAAAAAAAAAAAAAAAAAAAAAAAAAAAAAAAAAAAAAAAAAAAAAAAAAAAAAAAAAAAAAAAAAAAAAAAAAAAAAAAAAAAAAAAAAAAAAAAAAAAAAAAAAAAAAAAAAAAAAAAAAAAAAAAAAAAAAAAAAAAAAAAAAAAAAAAAAAAAAAAAAAAAAAAAAAAAAAAAAAAAAAAAAAAAAAAAAAAAAAAAAAAAAAAAAAAAAAAAAAAAAAAAAAAAAAAAAAAAAAAAAAAAAAAAAAAAAAAAAAAAAAAAAAAAAAAAAAAAAAAAAAAAAAAAAAAAAAAAAAAAAAAAAAAAAAAAAAAAAAAAAAAAAAAAAAAAAAAAAAAAAAAAAAAAAAAAAAAAAAAAAAAAAAAAAAAAAAAAAAAAAAAAAAAAAAAAAAAAAAAAAAAAAAAAAAAAAAAAAAAAAAAAAAAAAAAAAAAAAAAAAAAAAAAAAAAAAAAAAAAAAAAAAAAAAAAAAAAAAAAAAAAAAAAAAAAAAAAAAAAAAAAAAAAAAAAAAAAAAAAAAAAAAAAAAAAAAAAAAAAAAAAAAAAAAAAAAAAAAAAAAAAAAAAAAAAAAAAAAAAAAAAAAAAAAAAAAAAAAAAAAAAAAAAAAAAAAAAAAAAAAAAAAAAAAAAAAAAAAAAAAAAAAAAAAAAAAAAAAAAAAAAAAAAAAAAAAAAAAAAAAAAAAAAAAAAAAAAAAAAAAAAAAAAAAAAAAAAAAAAAAAAAAAAAAAAAAAAAAAAAAAAAAAAAAAAAAAAAAAAAAAAAAAAAAAAAAAAAAAAAAAAAAAAAAAAAAAAAAAAAAAAAAAAAAAAAAAAAAAAAAAAAAAAAAAAAAAAAAAAAAAAAAAAAAAAAAAAAAAAAAAAAAAAAAAAAAAAAAAAAAAAAAAAAAAAAAAAAAAAAAAAAAAAAAAAAAAAAAAAAAAAAAAAAAAAAAAAAAAAAAAAAAAAAAAAAAAAAAAAAAAAAAAAAAAAAAAAAAAAAAAAAAAAAAAAAAAAAAAAAAAAAAAAAAAAAAAAAAAAAAAAAAAAAAAAAAAAAAAAAAAAAAAAAAAAAAAAAAAAAAAAAAAAAAAAAAAAAAAAAAAAAAAAAAAAAAAAAAAAAAAAAAAAAAAAAAAAAAAAAAAAAAAAAAAAAAAAAAAAAAAAAAAAAAAAAAAAAAAAAAAAAAAAAAAAAAAAAAAAAAAAAAAAAAAAAAAAAAAAAAAAAAAAAAAAAAAAAAAAAAAAAAAAAAAAAAAAAAAAAAAAAAAAAAAAAAAAAAAAAAAAAAAAAAAAAAAAAAAAAAAAAAAAAAAAAAAAAAAAAAAAAAAAAAAAAAAAAAAAAAAAAAAAAAAAAAAAAAAAAAAAAAAAAAAAAAAAAAAAAAAAAAAAAAAAAAAAAAAAAAAAAAAAAAAAAAAAAAAAAAAAAAAAAAAAAAAAAAAAAAAAAAAAAAAAAAAAAAAAAAAAAAAAAAAAAAAAAAAAAAAAAAAAAAAAAAAAAAAAAAAAAAAAAAAAAAAAAAAAAAAAAAAAAAAAAAAAAAAAAAAAAAAAAAAAAAAAAAAAAAAAAAAAAAAAAAAAAAAAAAAAAAAAAAAAAAAAAAAAAAAAAAAAAAAAAAAAAAAAAAAAAAAAAAAAAAAAAAAAAAAAAAAAAAAAAAAAAAAAAAAAAAAAAAAAAAAAAAAAAAAAAAAAAAAAAAAAAAAAAAAAAAAAAAAAAAAAAAAAAAAAAAAAAAAAAAAAAAAAAAAAAAAAAAAAAAAAAAAAAAAAAAAAAAAAAAAAAAAAAAAAAAAAAAAAAAAAAAAAAAAAAAAAAAAAAAAAAAAAAAAAAAAAAAAAAAAAAAAAAAAAAAAAAAAAAAAAAAAAAAAAAAAAAAAAAAAAAAAAAAAAAAAAAAAAAAAAAAAAAAAAAAAAAAAAAAAAAAAAAAAAAAAAAAAAAAAAAAAAAAAAAAAAAAAAAAAAAAAAAAAAAAAAAAAAAAAAAAAAAAAAAAAAAAAAAAAAAAAAAAAAAAAAAAAAAAAAAAAAAAAAAAAAAAAAAAAAAAAAAAAAAAAAAAAAAAAAAAAAAAAAAAAAAAAAAAAAAAAAAAAAAAAAAAAAAAAAAAAAAAAAAAAAAAAAAAAAAAAAAAAAAAAAAAAAAAAAAAAAAAAAAAAAAAAAAAAAAAAAAAAAAAAAAAAAAAAAAAAAAAAAAAAAAAAAAAAAAAAAAAAAAAAAAAAAAAAAAAAAAAAAAAAAAAAAAAAAAAAAAAAAAAAAAAAAAAAAAAAAAAAAAAAAAAAAAAAAAAAAAAAAAAAAAAAAAAAAAAAAAAAAAAAAAAAAAAAAAAAAAAAAAAAAAAAAAAAAAAAAAAAAAAAAAAAAAAAAAAAAAAAAAAAAAAAAAAAAAAAAAAAAAAAAAAAAAAAAAAAAAAAAAAAAAAAAAAAAAAAAAAAAAAAAAAAAAAAAAAAAAAAAAAAAAAAAAAAAAAAAAAAAAAAAAAAAAAAAAAAAAAAAAAAAAAAAAAAAAAAAAAAAAAAAAAAAAAAAAAAAAAAAAAAAAAAAAAAAAAAAAAAAAAAAAAAAAAAAAAAAAAAAAAAAAAAAAAAAAAAAAAAAAAAAAAAAAAAAAAAAAAAAAAAAAAAAAAAAAAAAAAAAAAAAAAAAAAAAAAAAAAAAAAAAAAAAAAAAAAAAAAAAAAAAAAAAAAAAAAAAAAAAAAAAAAAAAAPZYQGkHAiBLIKcPA2cjp47PADSMHt9p6AZexN2m2o/QpvDtKndiz3CyhcZ4FgYNWB7l38ik/y95MP5qXLFWdWZ5kUU=</c2pa:manifest></metadata>
<path fill="#B7B38C" d="M0 0 C4.6 0.5 7.1 3.7 10.2 6.9 C10.5 7.2 10.5 7.2 11.9 8.7 C16.1 12.9 19.9 17.4 23.6 22.1 C26.5 25.6 29.4 29 32.3 32.4 C32.6 32.7 32.6 32.7 34 34.3 C37.6 38.5 41.3 42.5 45.1 46.6 C50.7 52.5 55.8 58.8 60.7 65.4 C61.9 66.9 63.1 68.4 64.3 69.9 C75.1 83.8 84.1 98.8 91 115 C91.4 116 91.8 116.9 92.2 117.9 C99.1 134.1 105.2 150.6 111 167.2 C111.8 169.5 112.7 171.8 113.6 174.1 C115.4 178.9 116.5 183.8 117.7 188.8 C117.8 189.3 117.8 189.3 118.4 192 C120.6 201 122.6 210 124.5 219 C132.6 255.6 132.6 255.6 138.7 269.6 C139.7 272.1 140.4 274.3 140.9 276.9 C141.9 281.2 143.7 284.9 145.6 288.8 C147.6 292.7 149 295.5 149 300 C151 301.7 152.9 303.1 155.1 304.5 C156.4 305.4 157.7 306.3 159 307.2 C159.6 307.6 160.3 308.1 161 308.6 C164.2 310.8 167.1 313.2 170.1 315.7 C175.9 320.4 181.8 324.9 187.8 329.4 C205.2 342.3 222.1 355.6 238.1 370.3 C242.6 374.4 247.3 378.2 252 382 C250.8 378.4 248.9 375.5 246.8 372.3 C239.9 361.4 233.4 350.2 227 339 C226.5 338.2 226.1 337.4 225.6 336.6 C198.7 288.7 178.2 231.4 180 176 C180.3 176 180.7 176 181 176 C184.6 192.9 187.5 209.9 190 227 C189.8 225.8 189.7 224.7 189.5 223.5 C189 219.5 189 215.7 189.1 211.8 C189.2 204.6 188.4 197.8 187.2 190.8 C186.2 184.6 185.5 178.5 184.9 172.3 C184.8 171.5 184.7 170.7 184.6 169.9 C183.3 155.6 182.8 141.3 182.9 126.9 C182.9 126.1 182.9 125.3 182.9 124.5 C182.9 119.2 182.9 114 183 108.7 C183 106.9 183 105.1 183 103.2 C183.1 97.7 183.1 92.2 183.2 86.6 C183.2 84.9 183.3 83.1 183.3 81.4 C183.3 79 183.3 76.5 183.4 74.1 C183.4 73.3 183.4 72.6 183.4 71.9 C183.6 66.5 185.1 63.4 188 59 C188.7 59.3 189.3 59.7 190 60 C190.3 61 190.7 62 191 63 C192 63 193 63 194 63 C195.3 64.4 195.3 64.4 196.6 66.3 C197 67 197.5 67.7 198 68.5 C198.3 68.9 198.3 68.9 199.6 70.9 C200.1 71.7 200.6 72.5 201.2 73.3 C212.7 91.1 222 110 229.7 129.8 C232 135.5 234.4 141.2 236.9 146.9 C252 180.7 260.6 215.5 266 252 C266.1 252.9 266.3 253.7 266.4 254.6 C268.8 271.5 269.9 289 268 306 C267.7 306 267.3 306 267 306 C267 304.9 266.9 303.9 266.9 302.8 C266.8 301.4 266.7 300 266.6 298.6 C266.6 297.9 266.6 297.1 266.5 296.4 C266.4 294.6 266.2 292.8 266 291 C265.3 290.7 264.7 290.3 264 290 C264.3 301.2 264.7 312.4 265 324 C265.7 321.7 266.3 319.4 267 317 C266.3 316.7 265.7 316.3 265 316 C265 315.3 265 314.7 265 314 C265.7 314 266.3 314 267 314 C267.3 312.4 267.7 310.7 268 309 C268.3 309 268.7 309 269 309 C269.2 320 268.7 331 268 342 C267 342 266 342 265 342 C265.3 344.1 265.5 346.2 265.8 348.2 C266 349.4 266.1 350.6 266.3 351.8 C267 355 267 355 268.5 356.9 C270.2 359.3 270.5 360.7 270.8 363.6 C270.9 364 270.9 364 271.2 366.2 C271.2 366.7 271.2 366.7 271.5 369 C271.8 370.9 272 372.8 272.3 374.7 C272.4 375.6 272.5 376.6 272.6 377.5 C275.8 399.3 288.6 414.4 303 430 C308.9 436.6 314.7 443.4 320.4 450.2 C322 452 323.6 453.8 325.2 455.7 C326.2 456.9 327.2 458 328.2 459.2 C328.7 459.7 329.1 460.3 329.6 460.8 C331.7 463.2 333 465 334 468 C332.4 470.4 330.8 472.5 329.1 474.7 C328.8 475 328.8 475 327.6 476.5 C326.4 478 325.2 479.5 324 481 C321.7 479 319.4 477 317 475 C317.5 475.6 317.9 476.1 318.4 476.7 C320 479.1 321 481.3 322 484 C321 484.7 320 485.3 319 486 C313.5 480 308 474.1 302.7 468 C300 464.8 297.2 461.7 294.4 458.7 C292.8 456.9 291.3 455.2 289.8 453.5 C283.7 446.7 277.4 440.3 271 433.8 C270 432.8 269 431.8 268 430.8 C266.6 429.4 265.1 427.9 263.7 426.5 C262.9 425.6 262 424.8 261.2 423.9 C256.7 420 251.5 420.7 245.8 420.7 C235.2 421.5 227.2 425.5 219 432 C217.9 432.7 216.9 433.5 215.8 434.2 C210.3 439.6 205.9 446.9 203 454 C203 455.3 203 456.6 203 458 C205.2 459.8 205.2 459.8 208.1 461.6 C220 469.9 225.5 484.7 228.4 498.6 C228.6 500.7 228.8 502.9 229 505 C229.1 505.7 229.1 506.5 229.2 507.3 C231.1 532.3 221.3 558.6 205.1 577.8 C204.7 578.2 204.7 578.2 203 580 C202.5 580.5 202 581.1 201.5 581.6 C197.3 586 192.8 589.4 187.7 592.7 C187.3 592.9 187.3 592.9 185.4 594.1 C174.8 600.7 165.8 604.1 153.1 601.4 C141.2 597.6 132.1 589.8 126 579 C121.1 569 118.8 559.1 118 548 C117.9 547.2 117.9 546.4 117.8 545.6 C117 520.2 127.7 492.6 143.8 473.1 C153.1 463.3 167.2 454.3 181 453.9 C182.1 453.9 183.2 453.9 184.2 453.9 C185.3 453.9 186.4 454 187.5 454 C188.3 454 189.2 454 190 454 C190.4 452.7 190.7 451.5 191.1 450.2 C196.5 434.4 207.4 421.8 222.2 414.2 C225.5 412.7 228.7 411.3 232 410 C228.5 409.9 225.1 409.9 221.6 409.8 C220.7 409.8 219.7 409.8 218.7 409.7 C207.4 409.6 198.6 413.4 188.5 418.2 C188 418.4 188 418.4 185.6 419.5 C179.6 422.4 174.7 425.7 169.6 429.9 C164.7 433.8 159.3 436.8 153.9 439.9 C152.7 440.6 151.4 441.4 150.2 442.1 C147.9 443.5 145.5 444.8 143.1 446.2 C140.7 447.6 138.3 449 135.8 450.5 C122.7 458.2 108.7 464.5 94.9 471.1 C91.5 472.7 88.2 474.4 84.8 476 C79.2 478.7 73.6 481.4 68 484 C66.9 484.5 65.8 485.1 64.6 485.6 C42.8 495.8 21.3 504.5 -2.6 508.1 C-6.7 508.8 -10.7 509.5 -14.7 510.5 C-34 515 -52.6 516.4 -72.4 516.1 C-75.7 516 -79 516 -82.3 515.9 C-84.3 515.9 -86.4 515.9 -88.4 515.9 C-93.4 515.8 -97.3 516.1 -102 518 C-104.8 518.2 -104.8 518.2 -107 518 C-108 517 -108 517 -108.1 514.1 C-108 511 -108 511 -107 509 C-106.3 509 -105.7 509 -105 509 C-105 508.3 -105 507.7 -105 507 C-108 506.3 -110.9 505.7 -114 505 C-114.3 503.7 -114.7 502.4 -115 501 C-114 500.5 -113.1 500 -112.1 499.5 C-102.7 494.5 -94.6 488.8 -86.5 481.9 C-81.3 477.6 -76.2 474.6 -70 472 C-67.8 470.7 -65.7 469.4 -63.6 468 C-63 467.6 -62.4 467.2 -61.8 466.8 C-58.6 464.7 -55.5 462.6 -52.3 460.5 C-34.1 448.4 -14.8 437.2 5 428 C6.2 427.5 7.3 426.9 8.5 426.4 C43.4 410.4 86.4 394.5 125.4 396.1 C135 396.3 144.4 395 153.9 393.8 C165.6 392.3 176.9 391.9 188.7 392.3 C189 392.3 189 392.3 190.8 392.4 C229.7 393.7 229.7 393.7 237 401 C238 401 239 401 240 401 C234.5 395.4 229.1 389.9 223.1 384.9 C220.5 382.6 217.9 380.2 215.4 377.8 C208.7 371.7 201.9 365.8 195 360 C194.4 359.5 193.9 359.1 193.3 358.6 C190.6 356.3 187.9 354 185.2 351.7 C183 349.9 180.9 348 178.8 346.2 C171.5 339.9 164.1 334.2 156 329 C155.3 328.6 154.6 328.1 153.9 327.7 C142.3 321 126.1 320.8 113 320.9 C112.5 320.9 112.5 320.9 110 320.9 C101.3 320.9 92.7 321.3 84 322 C84.3 322.8 84.6 323.7 85 324.5 C88.4 336.1 86.1 348.3 80.5 358.8 C68.6 378.4 52.2 394.1 29.5 399.7 C10.5 404.2 -11.3 406.3 -29.1 396.3 C-33.3 393.5 -37.3 390.5 -41 387 C-41 386.3 -41 385.7 -41 385 C-41.6 384.8 -42.2 384.5 -42.8 384.2 C-46.7 382.1 -48.6 379.9 -50.3 375.7 C-53.8 362.7 -53.5 353.1 -47 341 C-31.8 315.6 -12.1 300.9 16.2 292.9 C32.8 288.9 49.2 291.2 64.2 299.2 C69.8 302.8 74.4 307.4 79 312 C81.5 311.6 84 311.2 86.5 310.6 C95.9 308.8 105 308.7 114.6 308.8 C116.2 308.8 117.8 308.8 119.4 308.9 C123.3 308.9 127.1 308.9 131 309 C130.5 308.7 130.1 308.3 129.6 308 C121.4 302.1 113.2 296.2 105.1 290.1 C69.1 263 69.1 263 52.3 254.4 C47.5 251.9 43 249.2 38.6 246.1 C38 245.7 37.3 245.3 36.7 244.9 C35.5 244 34.2 243.2 33 242.3 C15.4 230.4 -2.2 223.9 -22.6 218 C-44.8 211.5 -65.3 202.4 -86 192 C-87.1 191.5 -88.1 190.9 -89.2 190.4 C-113.7 178 -135.5 163.5 -157 146.6 C-158.7 145.2 -160.4 143.9 -162 142.6 C-167.9 138 -173.5 133.1 -179 128 C-179.5 127.6 -179.5 127.6 -181.8 125.5 C-189 119 -196 112.1 -202.9 105.2 C-203.8 104.4 -204.7 103.5 -205.6 102.6 C-210.1 98.1 -214.4 93.5 -218.5 88.7 C-220.4 86.5 -222.4 84.5 -224.5 82.5 C-227.9 79.2 -231 75.8 -234.1 72.2 C-237.2 68.6 -240.4 65.2 -243.7 61.7 C-246 59 -246 59 -248.1 55.8 C-250 53 -250 53 -253 51 C-253.4 48.1 -253.4 48.1 -253 45 C-251.5 43.1 -251.5 43.1 -249 42 C-242 42.4 -235.7 44.6 -229.1 46.8 C-222 49.1 -215.1 51.3 -207.8 52.8 C-156.2 63.8 -105 91.7 -66.2 127 C-64.3 128.8 -62.3 130.5 -60.2 132.2 C-51.8 139.5 -43.8 147.6 -36.6 156.2 C-34.1 159.1 -31.3 161.7 -28.5 164.3 C-27 166 -27 166 -27 168 C-26.5 168.2 -25.9 168.4 -25.4 168.6 C-22.1 170.5 -19.8 173 -17.2 175.6 C-16.7 176.2 -16.1 176.7 -15.6 177.3 C-11.5 181.4 -7.7 185.6 -4 190 C2.2 197.2 8.4 204.4 14.8 211.5 C15.6 212.4 16.4 213.3 17.3 214.2 C23.6 220.6 30.3 225.7 37.9 230.5 C38.8 231.1 39.8 231.7 40.7 232.3 C49.2 237.6 57.8 242.5 66.4 247.5 C75.9 252.9 85.2 258.6 94.4 264.4 C97.1 266.1 99.8 267.7 102.5 269.3 C111.5 274.8 120.2 280.3 128.4 287 C130.8 288.9 133.3 290.5 136 292 C133 288 130 284 127 280 C126.5 279.3 126 278.6 125.5 277.9 C121.8 273.4 117.5 270.4 112.7 267 C98.2 256.3 87.7 239.3 77 225 C76.4 224.2 75.7 223.3 75.1 222.5 C50.7 189.9 32.7 156.1 19.3 117.6 C18.1 114.3 16.9 111.1 15.8 107.9 C7.9 85.8 2.5 62.9 -3.2 40.2 C-3.8 38 -4.3 35.8 -4.9 33.6 C-5.7 30.2 -6.6 26.8 -7.4 23.4 C-7.5 22.9 -7.5 22.9 -8.2 20.2 C-9.5 15 -10.4 10.4 -10 5 C-8.8 3.1 -8.8 3.1 -7 2 C-5.3 2 -3.7 2 -2 2 C-1.3 1.3 -0.7 0.7 0 0 Z M32 44 C33.3 46.7 34.6 48.9 36.7 51.2 C36.9 51.5 36.9 51.5 38.2 53 C38.8 53.6 39.4 54.2 39.9 54.9 C45 60.6 49.9 66.5 54.5 72.6 C56.5 75.3 58.2 77.1 61 79 C59.5 74.4 56.9 71.2 53.8 67.7 C53.6 67.4 53.6 67.4 52.3 65.9 C50.9 64.3 49.4 62.6 48 61 C47.3 60.2 46.7 59.5 46 58.7 C44.3 56.8 42.7 54.9 41 53 C40.3 52.2 39.6 51.4 38.8 50.5 C38.1 49.7 37.4 48.9 36.6 48 C36 47.2 35.3 46.5 34.6 45.7 C34.1 45.1 33.5 44.6 33 44 C32.7 44 32.3 44 32 44 Z M15 50 C19.1 99.5 49.3 150.9 75 192 C75.3 191.3 75.7 190.7 76 190 C75.3 188.1 75.3 188.1 74.1 185.8 C73.7 185 73.3 184.1 72.8 183.2 C72.4 182.2 71.9 181.2 71.4 180.2 C66.8 170.9 62.5 161.5 58.4 152 C58.2 151.4 57.9 150.7 57.6 150.1 C56.5 147.5 55.4 144.9 54.3 142.4 C52.7 138.6 51.1 134.9 49.4 131.1 C39.7 109 30.7 86.7 22.2 64.1 C20.3 59.3 18.5 54.6 16 50 C15.7 50 15.3 50 15 50 Z M-212 71 C-210.6 72.7 -209.2 74.3 -207.7 76 C-206.7 77.2 -205.6 78.5 -204.5 79.8 C-196.1 89.7 -186.7 98.9 -176.5 107.1 C-174.2 108.8 -172 110.7 -169.9 112.6 C-165.7 116.3 -161.4 119.7 -157 123 C-156.3 122.7 -155.7 122.3 -155 122 C-157.3 119.9 -159.6 117.7 -161.9 115.6 C-162.6 114.9 -163.2 114.3 -163.9 113.6 C-167.8 110.1 -171.6 106.6 -175.5 103.1 C-186.9 92.9 -186.9 92.9 -188 86 C-188.3 85.3 -188.7 84.7 -189 84 C-188.6 84.2 -188.6 84.2 -186.4 85.3 C-185.9 85.6 -185.9 85.6 -183.1 87.1 C-182 87.6 -180.9 88.2 -179.8 88.8 C-179.4 89 -179.4 89 -177 90 C-176.3 89.7 -175.7 89.3 -175 89 C-184 83.8 -193.1 78.8 -202.5 74.4 C-203.2 74 -203.9 73.7 -204.7 73.3 C-209.7 71 -209.7 71 -212 71 Z M197 79 C196.4 90.5 196.4 90.5 200 96 C200.3 95.3 200.7 94.7 201 94 C203 95 205 96 207 97 C205.7 92.5 203.8 88.7 201.4 84.6 C200.8 83.6 200.2 82.5 199.6 81.4 C199 80.6 198.5 79.8 198 79 C197.7 79 197.3 79 197 79 Z M-176 83 C-173.7 85.6 -171.4 87 -168.3 88.5 C-167.4 89 -166.4 89.5 -165.5 90 C-164.5 90.5 -163.5 91 -162.4 91.5 C-139.9 103.1 -119 117.3 -98.2 131.7 C-93.3 135.1 -88.4 138.4 -83.4 141.6 C-82.7 142 -82 142.4 -81.3 142.9 C-76.4 146 -76.4 146 -73 146 C-81.1 139.2 -89.4 132.9 -97.9 126.6 C-100 125 -102 123.5 -104.1 121.9 C-125.6 105.5 -149.4 89.7 -176 83 Z M191 102 C191 105.1 191 108.1 190.9 111.2 C190.9 112.1 190.9 112.9 190.9 113.8 C190.9 118 190.9 121.9 192 126 C191.3 125.7 190.7 125.3 190 125 C189.6 122.9 189.6 122.9 189.4 120.1 C189.3 119.1 189.2 118.1 189.1 117.1 C189 116.1 189 115 188.9 113.9 C188.8 112.9 188.7 111.8 188.6 110.8 C188.4 108.2 188.2 105.6 188 103 C187.7 103 187.3 103 187 103 C186.4 118.3 187.5 133.3 188.9 148.5 C189 149.4 189 150.4 189.1 151.4 C192.2 184.2 192.2 184.2 194 186 C194.4 188.2 194.8 190.4 195.1 192.7 C195.3 194.1 195.6 195.4 195.8 196.8 C196.1 199 196.4 201.2 196.8 203.4 C197.1 205.5 197.4 207.6 197.7 209.7 C197.9 210.9 198.1 212.2 198.3 213.5 C199 216.8 199.9 219.8 201 223 C201.3 221.7 201.7 220.4 202 219 C202 220.6 202 222.3 202 224 C201.7 224 201.3 224 201 224 C201.1 225.6 201.2 227.2 201.4 228.8 C201.4 229.7 201.5 230.6 201.6 231.5 C202 234 202 234 204 237 C204.3 236.7 204.7 236.3 205 236 C207.8 243.2 210.1 250.5 212 258 C212.3 258 212.7 258 213 258 C212.4 252 211.5 246.2 210.2 240.3 C209.8 238.7 209.4 237.1 209.1 235.4 C208.5 232.9 207.9 230.4 207.4 227.9 C205.1 218.1 203.6 209.1 204 199.1 C204 196.2 203.7 193.8 203 191 C202.3 191 201.7 191 201 191 C200.1 184.8 199.3 178.7 198.4 172.5 C198.1 170.4 197.9 168.3 197.6 166.2 C197.1 163.2 196.7 160.1 196.3 157.1 C196.2 156.2 196.1 155.2 195.9 154.3 C195.8 153.4 195.7 152.5 195.6 151.6 C195.4 150.8 195.3 150.1 195.2 149.3 C195 146.8 195 144.4 195 142 C195.3 143.6 195.7 145.3 196 147 C196.7 147 197.3 147 198 147 C198.3 151 198.7 154.9 199 159 C199.3 159 199.7 159 200 159 C200.2 153 199.5 147.8 198.1 141.9 C195.3 128.9 193.7 115.3 194 102 C193 102 192 102 191 102 Z M-62 142 C-56.9 149 -49.9 154.1 -43.1 159.4 C-40.5 161.4 -38.2 163.6 -36 166 C-35.3 165.3 -34.7 164.7 -34 164 C-57 142 -57 142 -62 142 Z M72 145 C72.7 148 73.3 150.9 74 154 C73 152.4 72 150.7 71 149 C70.7 149.7 70.3 150.3 70 151 C71 153.6 71 153.6 72.5 156.9 C72.8 157.5 73.1 158.1 73.4 158.7 C74.3 160.6 75.3 162.6 76.2 164.6 C76.8 165.9 77.5 167.3 78.1 168.6 C80.1 172.7 82 176.9 84 181 C84.6 182.3 85.2 183.6 85.8 184.9 C89.2 191.9 92.6 199 96 206 C97.2 202.3 96.7 201.5 95.2 198 C94.8 197 94.4 196.1 94 195 C93.6 194 93.1 193 92.7 191.9 C90 185.4 87.7 179.3 86.5 172.4 C85.7 168.4 84.1 164.8 82.6 161.1 C82.4 160.8 82.4 160.8 81.7 158.9 C79.3 153.2 76.4 149.3 72 145 Z M-127 154 C-123 158.4 -118.5 161.5 -113.4 164.6 C-112.6 165.1 -111.8 165.7 -110.9 166.2 C-102.6 171.3 -94.1 176.1 -85.5 180.7 C-83 182 -80.5 183.4 -78 184.7 C-76.5 185.6 -74.9 186.4 -73.4 187.2 C-72.7 187.6 -71.9 188 -71.2 188.4 C-69.5 189.4 -67.8 190.2 -66 191 C-65.3 190.7 -64.7 190.3 -64 190 C-65 189.4 -66 188.9 -67 188.3 C-70.6 186.3 -74.3 184.2 -77.9 182.2 C-79.7 181.2 -81.4 180.2 -83.2 179.2 C-91 174.8 -98.6 170.3 -106.3 165.8 C-107.5 165.1 -108.7 164.3 -110 163.6 C-111.7 162.6 -113.5 161.5 -115.2 160.5 C-116.2 159.9 -117.2 159.3 -118.3 158.7 C-121 157 -121 157 -123.2 155.3 C-125 154 -125 154 -127 154 Z M249 221 C249.6 230.4 250.3 239.9 251.2 249.3 C252.2 260.9 253.1 272.4 253.8 284 C253.9 285.1 253.9 286.3 254 287.4 C254.3 292.9 254.6 298.5 254.9 304 C255 306 255.1 308.1 255.3 310.1 C255.3 311.1 255.3 312 255.4 313 C255.4 313.8 255.5 314.7 255.5 315.6 C255.6 316.4 255.6 317.1 255.7 317.9 C256 320.2 256.8 321.9 258 324 C257.7 289.1 256.9 255.3 250 221 C249.7 221 249.3 221 249 221 Z M0 325 C-1 326.6 -2 328.3 -3 330 C-3.7 331 -4.3 332 -5 333 C0.5 331.8 5.9 330.5 11.3 328.8 C19.9 326.3 28.4 324.2 37.3 322.9 C40.9 322.4 43.9 321.9 47 320 C46.4 317.2 46.4 317.2 45 314 C29.3 305.6 11.1 312.3 0 325 Z M126 400 C126 400.7 126 401.3 126 402 C124.8 402 123.5 401.9 122.2 401.9 C118.9 401.9 116.9 402.3 114 404 C108.6 406.2 103.5 407.6 97.8 408.7 C87.1 411 76.9 414.6 66.6 418.3 C64.7 419 62.9 419.6 61.1 420.2 C56.6 421.8 52.1 423.4 47.6 425.1 C45 426 42.4 426.9 39.9 427.8 C30.7 431.1 22 434.6 13.5 439.2 C12.5 439.8 11.5 440.3 10.5 440.8 C6.5 442.9 3.2 444.8 0 448 C-1.6 449 -3.2 450 -4.9 451 C-5.9 451.6 -6.8 452.1 -7.8 452.7 C-8.8 453.3 -9.8 453.8 -10.8 454.4 C-22.8 461.4 -22.8 461.4 -28 465 C-27.3 465.3 -26.7 465.7 -26 466 C-23.6 465.1 -23.6 465.1 -20.7 463.7 C-19.6 463.2 -18.4 462.7 -17.3 462.1 C-16.7 461.8 -16.1 461.6 -15.5 461.3 C-13.6 460.4 -11.7 459.5 -9.8 458.6 C-7.2 457.4 -4.6 456.1 -2 454.9 C4.2 451.9 10.5 449 16.7 446.1 C17.8 445.6 19 445 20.2 444.5 C29 440.4 37.9 436.6 47 433 C46.7 434 46.3 435 46 436 C46.3 436.7 46.7 437.3 47 438 C46.4 438.1 45.8 438.2 45.2 438.4 C43 439 41.1 439.9 39 441 C39.5 441.2 39.5 441.2 42 442 C38.7 443.3 35.4 444.6 32 446 C35.8 447.3 36.9 446.5 40.5 445 C41.7 444.6 42.8 444.1 43.9 443.7 C45.2 443.2 46.4 442.7 47.6 442.2 C48.9 441.7 50.2 441.2 51.4 440.7 C57.5 438.2 63.6 435.7 69.7 433.2 C80.3 428.9 90.8 424.9 101.9 421.8 C105.3 420.8 108 420 111 418 C110 417.7 109 417.3 108 417 C109.4 416.6 110.9 416.3 112.3 415.9 C112.7 415.8 112.7 415.8 114.7 415.3 C117 415 117 415 120 416 C120.3 415.4 120.7 414.8 121 414.1 C123.8 411.1 127 410.6 131 410 C133.3 410 135.7 410 138 410 C139 409.7 140 409.3 141 409 C142.8 408.5 144.5 408.1 146.3 407.6 C147.4 407.3 148.4 407.1 149.4 406.8 C150.5 406.5 151.6 406.2 152.7 405.9 C153.8 405.7 154.9 405.4 156 405.1 C158.6 404.4 161.3 403.7 164 403 C164 402.7 164 402.3 164 402 C156.8 401.7 150.1 402.8 143 404 C143 403.3 143 402.7 143 402 C144.3 401.7 145.6 401.3 147 401 C142.7 401 138.4 401 134 401 C134 400.3 134 399.7 134 399 C131.2 399 128.8 399.4 126 400 Z M35.3 480.2 C34.3 480.5 33.4 480.8 32.4 481.1 C31.4 481.4 30.3 481.8 29.3 482.1 C28.2 482.4 27.2 482.8 26.1 483.1 C23.8 483.8 21.6 484.5 19.4 485.2 C16 486.3 12.5 487.4 9.1 488.4 C6.9 489.1 4.8 489.8 2.6 490.5 C1.6 490.8 0.5 491.1 -0.5 491.5 C-1 491.6 -1 491.6 -3.4 492.4 C-4.3 492.6 -5.1 492.9 -6 493.2 C-8 494 -8 494 -10 496 C-8.3 496.3 -6.7 496.7 -5 497 C-5 496.3 -5 495.7 -5 495 C-4.2 495.2 -3.5 495.4 -2.7 495.6 C0 496 0 496 3 495 C4.9 494.4 6.8 493.8 8.7 493.1 C33.1 485.2 33.1 485.2 43 480 C39.6 478.9 38.7 479.2 35.3 480.2 Z M161.2 486.8 C152 495.3 145.4 508.5 144 521 C143.9 523.3 143.9 525.6 143.9 527.9 C143.9 529 144 530.2 144 531.4 C144 532.2 144 533.1 144 534 C147.9 532.7 148.2 531.3 150.1 527.7 C150.7 526.6 151.3 525.4 151.9 524.3 C152.5 523.1 153.1 521.9 153.8 520.8 C155 518.5 156.2 516.2 157.4 513.9 C158 512.8 158.5 511.6 159.2 510.5 C160.4 508.1 161.7 505.8 163 503.4 C163.6 502.3 164.3 501.1 164.9 499.9 C165.5 498.9 166.1 497.9 166.7 496.8 C168.5 492.9 168.6 490.2 168 486 C164.9 484.5 164.1 484.9 161.2 486.8 Z" transform="translate(260,216)"/>
<path fill="#CCA989" d="M0 0 C2 3 2 3 1.5 6.9 C-0 13 -2.8 18.4 -5.6 23.9 C-6.1 25 -6.6 26 -7.1 27.1 C-8.7 30.4 -10.4 33.7 -12 37 C-11.3 37.1 -10.7 37.2 -10 37.2 C-5.9 38.3 -2.5 40.1 1.1 42.1 C1.9 42.5 2.6 42.9 3.4 43.3 C9.4 46.6 15.4 50 21 54 C21.6 54.4 22.2 54.8 22.8 55.3 C24.8 58.2 24.4 60.6 24 64 C22.6 67.5 22.6 67.5 20.8 71.1 C20.4 71.6 20.4 71.6 18.9 74.6 C17 78 17 78 14.8 81.3 C13 84 13 84 12.8 86.1 C16.1 91.3 25.3 94.3 30.7 97.1 C37.5 100.6 37.5 100.6 39 103 C39.9 108.5 37.8 112.1 35.1 116.7 C34.8 117.4 34.4 118 34 118.7 C32.4 121.5 30.8 124.3 29 127 C29.9 127.1 30.7 127.2 31.6 127.3 C35.2 128 38 129.3 41.3 130.9 C45.2 132.7 48.9 134.4 53 135.6 C58.1 137.3 61 139.3 63.8 144.1 C66.8 152.3 65.2 160 61.7 167.7 C52.4 186 41.2 203.2 30 220.4 C26.3 226.1 22.7 231.8 19 237.5 C14.4 244.6 9.9 251.8 5.2 258.9 C0.4 266.3 -4.3 273.7 -9 281.2 C-10.9 284.3 -12.9 287.4 -14.9 290.5 C-20.7 299.4 -26.1 308.6 -31.2 317.9 C-39 332.2 -47.4 346.1 -56 360 C-56.6 360.9 -57.2 361.9 -57.8 362.8 C-60.4 367.1 -63.1 371.4 -65.7 375.7 C-75.1 390.8 -84.4 406 -93.6 421.2 C-94 421.8 -94.3 422.4 -94.7 423 C-98.4 429 -102 435 -105.6 441 C-112.9 453.1 -120.5 465.1 -128.1 477 C-130.7 480.9 -133.1 484.8 -135.5 488.8 C-135.8 489.2 -135.8 489.2 -137.2 491.5 C-138.2 493.1 -139.2 494.8 -140.2 496.4 C-140.6 497.2 -141.1 497.9 -141.5 498.6 C-141.9 499.3 -142.3 499.9 -142.7 500.5 C-144.4 502.4 -145.5 502.7 -148 503 C-157 500.8 -165.2 496.4 -173.3 492.1 C-186.6 484.9 -200.1 478.9 -214.2 473.4 C-215.1 473.1 -216 472.7 -217 472.3 C-220.7 470.9 -224.4 469.5 -228.2 468 C-236.3 464.9 -244.4 461.6 -252.5 458.3 C-252.8 458.2 -252.8 458.2 -254.5 457.5 C-263.7 453.7 -272.8 449.8 -281.9 445.8 C-307.2 434.8 -332.6 424.4 -358.5 414.8 C-366.5 411.9 -374.3 408.7 -382.1 405.6 C-397.8 399.2 -413.7 393.2 -429.7 387.7 C-441.6 383.5 -452.9 379.1 -464 373 C-464 372 -464 371 -464 370 C-464.7 369.7 -465.3 369.3 -466 369 C-465 369 -464 369 -463 369 C-463 368 -463 367 -463 366 C-461.4 366.3 -459.7 366.7 -458 367 C-458.5 366.7 -459 366.3 -459.5 366 C-460.2 365.6 -460.8 365.1 -461.5 364.7 C-462.1 364.3 -462.8 363.8 -463.5 363.4 C-464 362.9 -464.5 362.5 -465 362 C-465 361 -465 360 -465 359 C-463.7 359 -462.4 359 -461 359 C-461 358.3 -461 357.7 -461 357 C-461.5 357 -461.5 357 -464 357.2 C-468.5 357.2 -471.9 355.7 -476 354 C-475.5 352.1 -475.5 352.1 -474 350 C-471.3 349.3 -468.8 349.2 -466 349 C-466.3 348.3 -466.7 347.7 -467 347 C-466 346.7 -465 346.3 -464 346 C-466.3 346 -468.6 346 -471 346 C-471.8 344.3 -471.8 344.3 -472 342 C-469.7 339.2 -469.7 339.2 -467 337 C-466.3 337 -465.7 337 -465 337 C-465 336.3 -465 335.7 -465 335 C-463.7 333.6 -462.4 332.3 -461 331 C-461.3 331.2 -461.3 331.2 -462.7 331.9 C-463.4 332.3 -464.1 332.7 -464.9 333.1 C-465.6 333.4 -466.3 333.8 -467.1 334.2 C-467.4 334.4 -467.4 334.4 -469 335 C-469.7 334.7 -470.3 334.3 -471 334 C-463.8 317.7 -435.2 308.9 -420 303 C-389.4 291.4 -345 279.2 -312 287 C-313.3 287.7 -314.6 288.3 -316 289 C-314.4 289.3 -312.9 289.7 -311.3 290 C-310.4 290.2 -309.6 290.4 -308.7 290.6 C-306.1 291 -303.6 291.1 -301 291 C-301.3 290 -301.7 289 -302 288 C-291.7 288.5 -281.9 290.4 -271.9 292.6 C-271.5 292.7 -271.5 292.7 -269.4 293.1 C-216.1 304.4 -216.1 304.4 -208 314 C-208.7 314.7 -209.3 315.3 -210 316 C-210.9 315.7 -211.8 315.4 -212.8 315.1 C-243.5 304.8 -243.5 304.8 -257.1 301.8 C-258 301.5 -258.9 301.3 -259.8 301.1 C-261.9 300.7 -263.9 300.3 -266 300 C-266.3 300.3 -266.7 300.7 -267 301 C-263.9 302.8 -262.8 303 -259 303 C-259 303.7 -259 304.3 -259 305 C-257.9 305.2 -256.7 305.5 -255.6 305.7 C-241.6 308.6 -228.4 312.8 -215.2 318.5 C-214.8 318.7 -214.8 318.7 -212.6 319.6 C-207.9 321.7 -205.2 323.1 -203 328 C-202.3 329 -201.5 330.1 -200.8 331.1 C-200.2 332.1 -199.6 333 -199 334 C-199.3 335 -199.7 336 -200 337 C-200.6 336.7 -201.3 336.5 -202 336.2 C-269.8 309.5 -337.3 299.5 -408.3 320.3 C-411 321 -411 321 -415 321 C-415 321.7 -415 322.3 -415 323 C-417 323.7 -419 324.3 -421 325 C-420 324.9 -419 324.9 -417.9 324.8 C-415.7 324.7 -413.5 324.6 -411.3 324.4 C-407.4 324.2 -403.5 324 -399.6 323.7 C-323.3 318.8 -249.3 341 -182 376 C-181.7 375.1 -181.5 374.2 -181.2 373.3 C-180.1 370.2 -178.8 367.9 -176.9 365.1 C-174 360.6 -171.2 355.9 -168.6 351.2 C-165.6 345.7 -162.4 340.4 -158.9 335.1 C-154.8 328.8 -150.9 322.4 -147.1 316 C-146.7 315.4 -146.3 314.8 -146 314.2 C-139.9 304.2 -133.9 294.2 -127.9 284.1 C-122.4 275 -116.9 265.8 -111.3 256.7 C-100.1 238.2 -89 219.7 -78 201.1 C-73.5 193.6 -69.1 186.1 -64.6 178.6 C-59.1 169.5 -53.7 160.4 -48.3 151.2 C-39.1 135.4 -29.8 119.6 -19.8 104.3 C-12.7 93.5 -5.9 82.6 0.7 71.5 C0.9 71.1 0.9 71.1 2 69.3 C3.6 66.6 5 64 6 61 C5.2 60.8 4.4 60.5 3.6 60.3 C-0.8 58.7 -5 56.8 -9.2 54.9 C-10.8 54.2 -12.4 53.5 -14 52.8 C-14.7 52.5 -15.4 52.1 -16.1 51.8 C-18 51 -18 51 -21 50 C-21.3 50.9 -21.5 51.7 -21.8 52.6 C-23 56 -24.5 58.7 -26.4 61.8 C-27 62.8 -27.7 63.9 -28.4 65 C-29 66 -29.7 67.1 -30.4 68.2 C-31.1 69.4 -31.8 70.5 -32.5 71.6 C-32.8 72.1 -32.8 72.1 -34.5 74.8 C-35.1 75.7 -35.7 76.7 -36.3 77.7 C-38 80 -38 80 -41 82 C-41.3 81.3 -41.7 80.7 -42 80 C-42.3 80.6 -42.3 80.6 -43.7 83.4 C-49.8 95.4 -56.8 106.6 -64.4 117.7 C-66.6 120.9 -68.7 124.1 -70.9 127.3 C-71.9 128.9 -73 130.4 -74 132 C-76 131 -76 131 -77 128 C-77.4 128.7 -77.8 129.4 -78.2 130.1 C-85.8 142.6 -93.4 154.9 -102 166.8 C-106.6 173.4 -110.9 180.1 -115 187 C-115.5 187.7 -115.9 188.5 -116.4 189.3 C-116.8 189.9 -117.2 190.6 -117.6 191.2 C-119 193 -119 193 -121.5 194.5 C-124.3 196.2 -125.5 197.7 -127.3 200.5 C-127.9 201.4 -128.5 202.3 -129.1 203.2 C-129.7 204.2 -130.3 205.1 -130.9 206.1 C-132.1 207.9 -133.2 209.7 -134.4 211.5 C-135 212.4 -135.6 213.4 -136.2 214.3 C-139 218.6 -142 222.8 -145 227 C-155.3 241.7 -165 256.7 -174.2 272 C-174.6 272.6 -175 273.2 -175.4 273.9 C-177.2 276.9 -179 279.9 -180.9 283 C-193.8 304.4 -193.8 304.4 -197 306 C-197.9 302.9 -198.2 301.5 -196.9 298.5 C-196.4 297.7 -195.9 296.9 -195.3 296 C-194.8 295.2 -194.3 294.4 -193.7 293.5 C-192 291 -192 291 -190.1 288.7 C-187.9 285.9 -186.1 283 -184.3 279.9 C-184 279.3 -183.6 278.7 -183.3 278.1 C-182.2 276.3 -181.1 274.4 -180 272.5 C-179.2 271.2 -178.5 269.9 -177.7 268.6 C-175.8 265.3 -173.9 262.1 -172 258.8 C-171.1 257.1 -170.1 255.5 -169.2 253.8 C-164.2 245.4 -159.4 237 -155.1 228.2 C-150.3 218.3 -144.6 208.8 -139 199.4 C-136.9 195.9 -134.9 192.4 -132.9 188.9 C-125.4 175.9 -117.7 163.2 -109.4 150.7 C-104.2 142.9 -99.2 135 -94.4 127 C-94 126.4 -93.7 125.8 -93.3 125.2 C-88.1 116.6 -83.1 107.9 -78.1 99.2 C-73.1 90.5 -67.9 82 -62.2 73.8 C-54.4 62.4 -47.3 50.7 -40.5 38.7 C-38.8 35.7 -37.1 32.7 -35.4 29.8 C-34.2 27.6 -33 25.5 -31.8 23.4 C-31.5 22.9 -31.5 22.9 -30.1 20.4 C-29.5 19.5 -29 18.5 -28.5 17.6 C-28.2 17.1 -28.2 17.1 -27 15 C-26 13 -26 13 -26 11 C-34.6 7.5 -43.1 4.7 -52.1 2.4 C-53.3 2.1 -54.5 1.8 -55.7 1.5 C-68.2 -1.7 -80.9 -3.9 -93.8 -4.8 C-96.2 -5 -98.6 -5.5 -101 -6 C-101 -6.7 -101 -7.3 -101 -8 C-101.6 -7.9 -102.2 -7.9 -102.8 -7.8 C-105.5 -7.5 -108.2 -7.2 -110.9 -6.9 C-111.9 -6.8 -112.8 -6.7 -113.8 -6.6 C-114.7 -6.5 -115.6 -6.4 -116.5 -6.3 C-117.4 -6.3 -118.2 -6.2 -119.1 -6.1 C-119.7 -6 -120.3 -6 -121 -6 C-121.3 -6.3 -121.7 -6.7 -122 -7 C-123.2 -6.6 -124.3 -6.3 -125.5 -5.9 C-127.1 -5.4 -128.6 -4.9 -130.2 -4.4 C-131 -4.2 -131.7 -3.9 -132.5 -3.7 C-136.9 -2.3 -139.5 -2 -144 -3 C-147.2 -2.6 -150.3 -1.9 -153.4 -1.2 C-154.2 -1 -155 -0.8 -155.9 -0.6 C-159.6 0.2 -163.2 1 -166.8 2.1 C-169.7 2.9 -172.3 3.3 -175.3 3.4 C-180.1 3.8 -184.3 4.9 -188.9 6.5 C-191 7 -191 7 -194 6 C-188 2.8 -181.9 0.5 -175.4 -1.6 C-174.5 -1.9 -173.6 -2.2 -172.7 -2.5 C-167.8 -4.1 -162.9 -5.6 -158 -7 C-158.9 -6.8 -159.8 -6.6 -160.7 -6.3 C-166.8 -5 -172.4 -3.8 -178.6 -4 C-184.1 -4 -189.6 -2.9 -195 -2 C-194 -5 -194 -5 -190.8 -6.6 C-189.4 -7.2 -188 -7.8 -186.5 -8.3 C-185.7 -8.6 -184.9 -8.9 -184.1 -9.2 C-127.4 -29.9 -52.9 -33.1 0 0 Z M4 96 C2.4 98.2 2.4 98.2 0.3 101.4 C0.1 101.7 0.1 101.7 -0.9 103.3 C-7.4 113.7 -13.7 124.4 -20 135 C-26.6 146.1 -33.3 157.2 -40.1 168.1 C-43.9 174.1 -47.5 180.2 -51.1 186.2 C-55.2 193 -59.3 199.7 -63.6 206.3 C-68.5 213.6 -73.1 221.1 -77.7 228.6 C-81.2 234.3 -84.9 239.8 -89 245 C-85.6 238 -81.7 231.3 -77.7 224.5 C-77.2 223.7 -76.8 222.9 -76.3 222.1 C-75.8 221.3 -75.4 220.6 -74.9 219.8 C-74 218 -74 218 -74 216 C-73.3 216 -72.7 216 -72 216 C-71.7 215.3 -71.4 214.6 -71.1 213.8 C-70.4 212.1 -69.7 210.3 -69 208.6 C-67.9 205.7 -66.9 202.9 -66 200 C-67 200 -68 200 -69 200 C-70.6 201.8 -70.6 201.8 -72.2 204.4 C-72.9 205.3 -73.5 206.2 -74.1 207.1 C-74.7 208.1 -75.3 209 -76 210 C-77.3 211.9 -78.6 213.8 -79.9 215.6 C-80.5 216.5 -81.1 217.3 -81.7 218.2 C-82.1 218.8 -82.6 219.4 -83 220 C-82.3 220.3 -81.7 220.7 -81 221 C-84.6 226.6 -88.3 232.2 -92 238 C-92.3 237 -92.7 236 -93 235 C-110.3 262.2 -127.3 289.7 -143.6 317.5 C-145.9 321.5 -148.3 325.5 -150.8 329.5 C-151.2 330.2 -151.6 330.9 -152 331.6 C-152.8 332.8 -153.6 334 -154.4 335.3 C-156.6 338.9 -157.5 341.8 -158 346 C-159 348 -160 350 -161 352 C-160.7 352.7 -160.3 353.3 -160 354 C-159.5 353.4 -159.1 352.9 -158.6 352.3 C-158 351.6 -157.3 350.9 -156.7 350.1 C-156.1 349.4 -155.5 348.7 -154.8 347.9 C-153 346 -153 346 -150 344 C-151.4 347.9 -153.3 351.3 -155.4 354.8 C-156.1 355.9 -156.8 357 -157.5 358.1 C-158.2 359.3 -159 360.5 -159.7 361.6 C-160.4 362.8 -161.1 363.9 -161.8 365 C-165.7 371.3 -169.7 377.6 -173.8 383.8 C-175 386 -175 386 -175 389 C-173 391.2 -173 391.2 -171 393 C-173.3 392.3 -175.6 391.7 -178 391 C-178.3 392 -178.7 393 -179 394 C-185 391.9 -190.2 389.4 -195.5 385.7 C-203.8 380 -212.6 375.6 -222 371.8 C-223.1 371.4 -224.3 370.9 -225.5 370.4 C-258.6 357.3 -292.9 347.5 -328 341 C-328.5 340.9 -328.5 340.9 -330.9 340.5 C-352.2 336.6 -375.5 336.4 -397 339 C-393.5 341.3 -390.7 341.5 -386.7 341.9 C-385.2 342 -383.7 342.1 -382.2 342.3 C-381.4 342.4 -380.6 342.4 -379.7 342.5 C-329.5 347.2 -284.8 361.9 -240.8 386.4 C-237.9 388 -235 389.6 -232.1 391.2 C-220 397.9 -208.4 405.1 -197 413 C-196.4 413.4 -195.7 413.9 -195 414.3 C-187.2 419.7 -179.9 425.4 -173 432 C-176.3 430.4 -178.5 428.7 -181 426 C-181.3 426.7 -181.7 427.3 -182 428 C-183.3 427.7 -184.6 427.3 -186 427 C-182.7 430.5 -178.9 432.7 -174.9 435.2 C-174.2 435.7 -173.5 436.2 -172.7 436.7 C-172 437.1 -171.3 437.6 -170.6 438 C-169.9 438.4 -169.3 438.8 -168.6 439.2 C-168.1 439.5 -167.6 439.7 -167 440 C-166.3 439.7 -165.7 439.3 -165 439 C-165.3 438 -165.7 437 -166 436 C-164.7 428.2 -160.8 421.2 -157.1 414.2 C-156.5 413.2 -155.9 412.1 -155.3 410.9 C-151.1 403 -146.8 395.1 -142.4 387.2 C-139.4 381.7 -136.5 376.1 -133.6 370.5 C-128 359.6 -122 348.9 -115.7 338.3 C-112.1 332.2 -108.6 326 -105.1 319.9 C-103.4 317 -101.7 314 -100 311.1 C-99.9 310.8 -99.9 310.8 -99 309.3 C-95.3 302.8 -91.6 296.4 -87.9 289.9 C-87.3 288.9 -86.7 287.9 -86.1 286.8 C-83.3 281.8 -80.3 276.8 -77.3 271.9 C-76.8 271.1 -76.2 270.2 -75.7 269.3 C-74 267 -72.4 265.6 -70 264 C-70.4 264.6 -70.7 265.2 -71.1 265.8 C-71.3 266.2 -71.3 266.2 -72.5 268.2 C-72.7 268.6 -72.7 268.6 -73.9 270.6 C-75 273 -75 273 -75 277 C-76 278 -77 279 -78 280 C-78.7 281.7 -79.3 283.3 -80 285 C-81 286.8 -81.9 288.7 -82.9 290.5 C-83.5 291.5 -84.1 292.6 -84.7 293.7 C-85.4 294.9 -86 296 -86.7 297.2 C-87.4 298.4 -88 299.6 -88.7 300.8 C-94.6 311.3 -100.5 321.7 -106.6 332.1 C-107.1 333.1 -107.7 334 -108.3 335 C-109.5 337.1 -110.8 339.2 -112 341.3 C-112.7 342.4 -113.3 343.5 -114 344.6 C-114.6 345.6 -115.2 346.6 -115.8 347.6 C-116.2 348.4 -116.6 349.2 -117 350 C-116.7 350.7 -116.3 351.3 -116 352 C-109.8 341.8 -103.8 331.5 -97.9 321.2 C-93.6 313.8 -89.3 306.4 -85 299 C-79.9 290.3 -74.9 281.6 -69.9 272.9 C-69.2 271.8 -68.6 270.8 -68 269.6 C-67.7 269.1 -67.7 269.1 -66.2 266.5 C-65.9 266 -65.9 266 -64.5 263.6 C-63.6 262 -62.7 260.4 -61.8 258.7 C-59.2 254.1 -59.2 254.1 -57 253 C-56.7 254 -56.3 255 -56 256 C-52 250.3 -52 250.3 -52 248 C-51 247.7 -50 247.3 -49 247 C-47.7 243.8 -47 241.4 -47 238 C-48 238 -49 238 -50 238 C-49.7 237.6 -49.7 237.6 -48.4 235.6 C-48.2 235.2 -48.2 235.2 -47 233 C-47.3 232.3 -47.7 231.7 -48 231 C-49.3 233.1 -49.3 233.1 -56 244 C-57 243.7 -58 243.3 -59 243 C-48.5 224.9 -37.8 206.9 -27 189 C-26.4 188 -25.8 187 -25.2 186 C-18.3 174.7 -11.4 163.3 -4.2 152.1 C5.1 137.6 14.2 122.9 23 108 C20.2 105.2 16.9 104 13.4 102.3 C11.1 101.1 9.8 99.8 8 98 C7.3 98 6.7 98 6 98 C6 97.3 6 96.7 6 96 C5.3 96 4.7 96 4 96 Z M28 127 C27 128.4 26 129.9 25 131.4 C24.7 131.8 24.7 131.8 23.2 134.2 C22.5 135.2 21.9 136.3 21.2 137.3 C20.8 137.8 20.8 137.8 19.1 140.5 C13.5 149.2 8 157.9 2.5 166.6 C1.5 168.2 0.4 169.9 -0.6 171.5 C-7 181.8 -13.3 192.1 -19.2 202.6 C-23.5 210.1 -27.9 217.5 -32.4 224.9 C-32.7 225.5 -33.1 226.1 -33.5 226.7 C-36.6 231.8 -39.8 237 -42.9 242.2 C-55.5 262.7 -67.4 283.5 -79.1 304.6 C-87.3 319.3 -95.6 334.1 -104.1 348.6 C-106.9 353.4 -109.7 358.2 -112.4 363.1 C-118.2 373.7 -124.7 383.8 -131.1 394 C-132.9 396.8 -134.7 399.7 -136.5 402.6 C-144.9 416 -153.9 429.1 -163 442 C-162.8 442.2 -162.8 442.2 -161.5 443.4 C-159.8 445.2 -159.4 446.5 -159 449 C-166.2 445.3 -173.1 441.1 -180 436.8 C-198.3 425.4 -217.1 415.1 -236.2 405.1 C-240.2 402.9 -244.3 400.8 -248.3 398.6 C-304 368.7 -367.1 355.4 -430 356 C-427.3 357.8 -425.2 358.7 -422.2 359.8 C-421.3 360.1 -420.3 360.5 -419.3 360.8 C-418.7 361 -418.7 361 -416.1 362 C-414.9 362.4 -413.8 362.7 -412.7 363.1 C-409.1 364.4 -405.5 365.7 -401.9 366.9 C-399.4 367.8 -396.9 368.7 -394.4 369.6 C-382 373.9 -369.5 378.2 -357 382.2 C-343.9 386.5 -331.2 391.5 -318.6 396.9 C-310.4 400.4 -302.1 403.7 -293.8 406.9 C-293.2 407.2 -292.5 407.4 -291.9 407.7 C-288.6 408.9 -285.3 410.2 -282.1 411.4 C-246.5 425.1 -211.2 439.3 -176.2 454.6 C-171.4 456.7 -166.6 458.8 -161.8 460.8 C-161 461.1 -160.2 461.5 -159.4 461.8 C-154.2 464 -154.2 464 -152 464 C-151.7 463.4 -151.4 462.9 -151.1 462.3 C-147.4 455.2 -143.7 448.1 -140 441 C-139.5 440 -139 439 -138.4 438 C-127.9 418.1 -116.3 399 -104 380.2 C-94.8 366 -86.1 351.5 -77.5 336.8 C-69.9 323.7 -61.8 310.7 -53.6 297.9 C-44.1 282.8 -35.1 267.5 -26.2 252.2 C-21 243.3 -15.6 234.6 -10.1 226 C-6.9 220.8 -3.6 215.6 -0.4 210.4 C-0.2 210 -0.2 210 1.2 207.8 C3.7 203.7 6.2 199.7 8.6 195.6 C14.3 186.1 20.3 176.8 26.5 167.6 C26.9 167 27.3 166.4 27.7 165.8 C34.7 155.4 34.7 155.4 36.8 152.8 C37.2 152.2 37.6 151.6 38 151 C36.8 147.5 36.3 147.3 33.2 145.6 C30 143.7 27.5 141.8 25 139 C25.3 138 25.7 137 26 136 C26.7 136.2 26.7 136.2 30 137 C29.7 136.3 29.3 135.7 29 135 C29.5 134.7 29.5 134.7 32 133 C31.5 132 31.5 132 29 127 C28.7 127 28.3 127 28 127 Z M-94 400 C-106.2 418.8 -117.5 438.1 -128.5 457.6 C-128.9 458.3 -129.2 458.9 -129.6 459.5 C-131 462 -132.1 464.3 -133 467 C-132.3 467 -131.7 467 -131 467 C-129.7 465.1 -128.5 463.2 -127.4 461.2 C-126.6 459.8 -125.8 458.4 -124.9 457 C-124.5 456.3 -124 455.5 -123.6 454.6 C-121.8 451.7 -120.1 448.7 -118.3 445.8 C-111.6 434.6 -104.9 423.3 -98.4 411.9 C-97.9 411 -97.3 410 -96.7 409 C-96.2 408.1 -95.7 407.2 -95.2 406.3 C-95 405.9 -95 405.9 -93.8 403.9 C-93.6 403.3 -93.3 402.6 -93 402 C-93.2 401.7 -93.2 401.7 -94 400 Z" transform="translate(1145,403)"/>
<path fill="#DCA990" d="M0 0 C1 1 1 1 1.3 4.1 C1 8.5 -0.4 11.7 -2.5 15.6 C-2.9 16.3 -3.2 17 -3.6 17.7 C-4.7 19.8 -5.9 21.9 -7 24 C-7.6 25.1 -8.2 26.3 -8.9 27.4 C-13.2 35.2 -17.9 42.7 -22.6 50.3 C-25.8 55.5 -29.1 60.7 -32.2 66 C-32.6 66.6 -33 67.2 -33.3 67.8 C-34.1 69 -34.8 70.2 -35.5 71.4 C-40.5 79.6 -45.4 87.8 -50.7 95.8 C-57.6 106.2 -63.8 117.1 -70 128 C-70.5 128.8 -70.9 129.6 -71.4 130.5 C-84.5 153.1 -84.5 153.1 -85 164 C-77.6 156.4 -71.6 148 -65.5 139.2 C-63.1 135.7 -60.6 132.2 -58.1 128.6 C-57.6 127.9 -57.1 127.2 -56.6 126.5 C-52.9 121.2 -49 115.9 -45.1 110.6 C-40.4 104.3 -35.8 97.9 -31.4 91.3 C-26.9 84.7 -22.3 78.3 -17.5 72 C-13.8 67.1 -10.2 62.1 -6.6 57.1 C12.6 30.4 12.6 30.4 24 19 C26.6 18.9 26.6 18.9 29 19 C30.7 23 29.2 26.3 27.7 30.1 C27.6 30.5 27.6 30.5 26.9 32.3 C21.2 46.4 12.7 59.2 4.9 72.2 C0.3 79.7 -4.1 87.4 -8.5 95 C-13.4 103.6 -18.4 112.1 -23.5 120.5 C-44.5 155.3 -44.5 155.3 -51.3 169.6 C-51.7 170.3 -52 171 -52.4 171.8 C-54.7 176.7 -56 181.6 -57 187 C-51.5 184.9 -49.2 181.9 -46.4 176.9 C-45.5 175.4 -44.6 174 -43.8 172.5 C-43.3 171.8 -42.9 171 -42.4 170.2 C-40.1 166.6 -37.7 163.1 -35.2 159.6 C-34.7 158.9 -34.2 158.2 -33.7 157.5 C-29.5 151.6 -25.2 145.8 -21 139.9 C-15.2 131.9 -9.5 123.8 -3.9 115.7 C-1.9 112.9 0 110.1 2 107.3 C7.7 99.1 13.4 90.8 19.1 82.5 C43.7 46.3 43.7 46.3 52 39 C55.2 38.8 55.2 38.8 58 39 C60.6 49.8 52.2 60.6 47.1 69.7 C46.4 70.9 45.7 72 45.1 73.2 C43.7 75.6 42.4 78 41 80.5 C39.1 83.8 37.2 87.2 35.4 90.5 C29.8 100.5 24.1 110.5 18.5 120.5 C11.6 132.6 4.8 144.8 -2 157 C-2.5 158 -3.1 158.9 -3.6 159.9 C-9.3 170.2 -14.9 180.6 -20.2 191.1 C-20.7 192.1 -21.2 193 -21.7 193.9 C-22.1 194.8 -22.6 195.7 -23 196.6 C-23.2 197 -23.2 197 -24.2 198.9 C-25 201 -25 201 -25 205 C-15.6 195.8 -8.2 185.3 -0.8 174.5 C1.2 171.8 3.1 169 5 166.2 C11 157.6 17.1 149 22.8 140.3 C27.9 132.7 33.1 125.2 38.2 117.6 C39.8 115.3 41.4 113 42.9 110.7 C48.9 101.9 55.1 93.4 61.4 84.9 C65.6 79.2 69.7 73.4 73.8 67.7 C74.1 67.3 74.1 67.3 75.4 65.6 C75.8 64.9 76.2 64.3 76.7 63.7 C78 62 79.3 60.4 81 59 C84.1 58.6 84.1 58.6 87 59 C89.2 62.3 89.2 63.7 88.6 67.5 C86 78.1 80.8 88.1 76.1 97.9 C75.8 98.6 75.4 99.3 75.1 100 C65.5 120.4 55.5 140.6 45.6 160.8 C44 164.1 42.4 167.3 40.8 170.6 C38 176.1 35.3 181.7 32.5 187.2 C31.5 189.3 30.5 191.4 29.4 193.5 C-13.8 281.3 -13.8 281.3 -57.9 296.4 C-63.8 298.2 -69.9 299.3 -75.9 300.5 C-98 305.2 -113.3 318.8 -126 337 C-128.2 340.4 -130.3 343.9 -132.4 347.5 C-135.4 352.8 -138.7 358 -141.9 363.3 C-146.7 371 -151.5 378.8 -156.2 386.6 C-156.5 387.2 -156.9 387.8 -157.3 388.4 C-158.7 390.8 -160.1 393.1 -161.5 395.5 C-161.7 395.9 -161.7 395.9 -162.8 397.6 C-162.9 397.9 -162.9 397.9 -163.7 399.3 C-165 401 -165 401 -167.3 403.2 C-170.4 406.4 -172.6 409.8 -174.9 413.6 C-175.1 413.9 -175.1 413.9 -176.2 415.7 C-177.1 417.1 -177.9 418.6 -178.8 420 C-179.8 421.7 -180.9 423.5 -182 425.2 C-185.1 430.4 -187.7 435.4 -189.9 441 C-192.8 448 -196.6 453.9 -201 460 C-201.7 461 -202.3 462 -203 463.1 C-205 466 -205 466 -207 467.9 C-209.8 470.8 -211.1 474.1 -212.6 477.8 C-212.9 478.5 -213.2 479.2 -213.5 479.9 C-215.4 484.2 -216.7 488.5 -218 493 C-219.6 497.5 -221.8 501.6 -223.9 505.8 C-224.3 506.6 -224.7 507.3 -225.1 508.1 C-226.4 510.5 -227.6 513 -228.9 515.4 C-229.1 515.9 -229.1 515.9 -230.2 518 C-236.5 530.3 -242.9 542.5 -249.7 554.6 C-251 557.1 -252.4 559.6 -253.8 562.1 C-259.6 572.9 -265.8 583.3 -272.4 593.6 C-275.1 597.8 -277.7 602 -280.3 606.2 C-284.9 613.8 -289.7 621.2 -294.6 628.6 C-299.8 636.5 -304.8 644.5 -309.7 652.7 C-314.4 660.8 -319.4 668.7 -324.5 676.6 C-326.6 679.9 -328.6 683.2 -330.7 686.5 C-332.7 689.6 -334.7 692.8 -336.7 695.9 C-337.5 697.2 -338.3 698.5 -339.2 699.8 C-343.8 707.2 -348.9 713.8 -355 720 C-355.7 720.7 -356.3 721.4 -357 722.1 C-366.2 731.1 -380.3 738.2 -393.2 738.4 C-401.8 738.3 -408.1 736.2 -414.2 730.1 C-423.3 718.3 -426.2 704.6 -425 690 C-424.1 685.5 -422.7 681.3 -421 677 C-420.6 676 -420.3 675 -419.9 673.9 C-408.9 643 -387.7 615.4 -368.6 589.2 C-366.4 586.2 -364.2 583.2 -362.1 580.2 C-359.4 576.4 -356.7 572.7 -354 569 C-353.4 568.2 -352.9 567.5 -352.3 566.7 C-350.6 564.4 -349 562.1 -347.3 559.9 C-346.8 559.2 -346.3 558.5 -345.8 557.8 C-344.6 556.1 -343.3 554.6 -342 553 C-341.3 553 -340.7 553 -340 553 C-339.7 552.3 -339.4 551.5 -339.1 550.8 C-337.5 546.8 -335.8 543.5 -333.2 540.1 C-332.7 539.4 -332.1 538.6 -331.6 537.9 C-331.3 537.5 -331.3 537.5 -329.8 535.4 C-328.5 533.7 -327.2 532 -325.9 530.3 C-325.3 529.4 -324.6 528.5 -323.9 527.6 C-322.1 525.1 -320.3 522.6 -318.4 520.1 C-311.2 510.3 -303.9 500.6 -296.5 490.9 C-295.1 489.2 -293.8 487.4 -292.5 485.7 C-288.9 481.1 -285.4 476.4 -281.8 471.9 C-275.2 463.4 -268.7 454.9 -262.4 446.3 C-258 440.3 -253.5 434.4 -249 428.5 C-242.1 419.5 -235.4 410.5 -228.7 401.4 C-227 399 -225.2 396.6 -223.4 394.2 C-210.4 376.6 -197.9 358.6 -185.7 340.5 C-183.3 336.9 -180.8 333.3 -178.4 329.7 C-170.8 318.6 -163.4 307.5 -157.1 295.6 C-156.7 294.7 -156.2 293.8 -155.7 292.9 C-147.9 277.5 -146.5 264.7 -150 248 C-155 223.9 -152.3 200 -141 178 C-140.7 177.5 -140.7 177.5 -139.3 174.7 C-128.1 152.8 -115.8 131.7 -100.7 112.1 C-98.8 109.7 -96.9 107.3 -95.1 104.8 C-84.9 91.4 -74.6 77.9 -63.6 65.1 C-61.2 62.3 -58.9 59.4 -56.6 56.6 C-52.6 51.7 -48.5 46.9 -44.4 42.2 C-41.3 38.6 -38.3 34.9 -35.3 31.2 C-31.7 26.8 -28 22.6 -24.1 18.3 C-22.2 16.2 -20.3 14.1 -18.5 11.9 C-15.9 9 -13.3 6.2 -10.4 3.5 C-9.7 2.8 -9 2.2 -8.3 1.5 C-5.4 -0.4 -3.4 -0.3 0 0 Z M-22 33 C-27.3 39.8 -32.7 46.5 -37.9 53.4 C-41.7 58.4 -45.7 63.3 -49.7 68.2 C-61 82 -61 82 -64 88 C-64.7 88.3 -65.3 88.7 -66 89 C-66.3 90 -66.7 91 -67 92 C-69 95 -69 95 -71.2 97.2 C-74.7 100.7 -77.4 104.5 -80.2 108.6 C-80.8 109.3 -81.3 110.1 -81.9 110.8 C-82.4 111.6 -82.9 112.3 -83.5 113.1 C-83.9 113.7 -84.4 114.4 -84.9 115.1 C-86 117 -86 117 -86.5 118.9 C-87.8 124 -91.5 128.4 -94.4 132.8 C-95.1 133.8 -95.7 134.9 -96.5 136 C-97.1 137 -97.8 138.1 -98.5 139.1 C-99.1 140 -99.7 141 -100.3 142 C-100.9 142.6 -101.4 143.3 -102 144 C-103 144 -104 144 -105 144 C-108 149.1 -110.9 154.3 -113.8 159.4 C-115.6 162.6 -117.4 165.7 -119.3 168.8 C-131.8 189.6 -135.3 216.7 -132.8 240.5 C-129.4 273.6 -138.8 293.9 -156.6 320.9 C-158.9 324.3 -161.1 327.7 -163.3 331.2 C-163.8 331.9 -164.2 332.6 -164.7 333.3 C-168.4 339 -172 344.8 -175.7 350.5 C-176.3 351.4 -176.9 352.3 -177.5 353.3 C-180 357.2 -182.5 361.2 -185 365.1 C-193.3 378.3 -201.8 391.4 -211 404 C-211.5 404.7 -212 405.4 -212.6 406.2 C-215.7 410.5 -218.8 414.7 -222 419 C-221.7 419.7 -221.3 420.3 -221 421 C-227.8 430.8 -234.8 440.5 -242 450 C-241.7 448.7 -241.3 447.4 -241 446 C-245.1 449.9 -248.6 454.2 -252.1 458.8 C-252.6 459.5 -253.2 460.2 -253.8 461 C-258.1 466.8 -262.3 472.6 -266.4 478.5 C-275 490.8 -284 502.8 -293.2 514.7 C-299.3 522.7 -305.1 530.8 -310.8 539.2 C-314.4 544.5 -318.2 549.8 -322 555 C-322.3 555.3 -322.3 555.3 -323.5 557.1 C-329.6 565.5 -335.7 574 -341.8 582.3 C-345.9 587.9 -350 593.5 -354 599.1 C-356.8 602.9 -359.5 606.7 -362.3 610.5 C-368 618.2 -373.5 626.1 -378.7 634.2 C-379.2 635 -379.7 635.8 -380.2 636.6 C-382.7 640.7 -384.7 644.4 -386 649 C-383.8 646.9 -382.1 644.9 -380.5 642.3 C-380 641.6 -379.6 640.9 -379.1 640.1 C-378.6 639.4 -378.1 638.6 -377.6 637.8 C-372.6 630.3 -367.3 623 -361.9 615.8 C-359.2 612.3 -356.7 608.8 -354.1 605.2 C-344 590.9 -333.7 577 -322 564 C-323.7 567.8 -326 571.2 -328.3 574.6 C-328.7 575.3 -329.2 575.9 -329.6 576.6 C-333.6 582.5 -337.7 588.2 -341.9 594 C-352.4 608.4 -362.4 623 -372 638 C-372.7 639 -373.3 640 -374 641 C-374.5 643 -374.9 644.9 -375.4 646.9 C-376.4 650.3 -378 653.4 -379.7 656.6 C-380.4 658 -381.1 659.4 -381.8 660.8 C-382.6 662.2 -383.3 663.6 -384 665 C-396.3 689 -396.3 689 -394.3 699.5 C-393.4 702.1 -392.4 704.5 -391 707 C-392.9 706.3 -392.9 706.3 -395 705 C-395.8 702.6 -395.8 702.6 -396.2 699.9 C-396.4 699 -396.5 698.1 -396.7 697.1 C-396.8 696.4 -396.9 695.7 -397 695 C-399.5 698.7 -399.7 701.7 -399 706 C-397.4 708.5 -397.4 708.5 -395 710 C-392 710.5 -389.9 710.5 -387.3 709 C-385.4 707.6 -383.6 706.1 -381.9 704.6 C-380.7 703.6 -379.5 702.6 -378.2 701.6 C-377.7 701.2 -377.2 700.7 -376.6 700.2 C-375 699 -375 699 -373 698.1 C-370.6 696.8 -369.4 695.4 -367.6 693.3 C-367 692.6 -366.4 691.9 -365.8 691.2 C-356.2 679.5 -347.7 667.3 -339.6 654.5 C-336.5 649.7 -333.3 645 -330 640.2 C-318 622.9 -318 622.9 -318 620 C-317.3 620 -316.7 620 -316 620 C-315.7 620.7 -315.3 621.3 -315 622 C-314.7 621 -314.3 620 -314 619 C-314.7 619 -315.3 619 -316 619 C-314.7 616.7 -313.4 614.4 -312 612 C-311.3 612.3 -310.7 612.7 -310 613 C-309 612.7 -308 612.3 -307 612 C-308.4 614.4 -309.8 616.7 -311.2 619.1 C-312.4 621.1 -313.5 623.1 -314.7 625.1 C-317.4 629.7 -320.1 634.2 -322.9 638.7 C-323.3 639.4 -323.7 640.1 -324.2 640.8 C-325 642.1 -325.8 643.3 -326.5 644.6 C-327.4 646 -328.2 647.5 -329 649 C-328.7 649.7 -328.3 650.3 -328 651 C-322.2 641.9 -316.4 632.8 -311 623.4 C-307.6 617.6 -304 611.9 -300.2 606.2 C-286.6 586 -274.7 564.9 -263 543.5 C-256.7 531.8 -249.9 520.4 -243 509 C-244 508.7 -245 508.3 -246 508 C-245.8 507.6 -245.8 507.6 -244.7 505.7 C-236.9 492.6 -229.2 479.5 -221.8 466.2 C-215.6 455.1 -209.2 444.1 -202.8 433.1 C-199.6 427.6 -196.4 422.1 -193.2 416.6 C-192.6 415.5 -192 414.4 -191.3 413.3 C-188.2 407.9 -185.1 402.5 -182.2 397 C-175.6 385 -168.3 373.5 -161 362 C-160.5 361.2 -160 360.4 -159.5 359.6 C-152 347.7 -143.9 336.1 -135.8 324.6 C-134.2 322.3 -132.6 320.1 -131.1 317.8 C-115.6 295.5 -97 283.8 -71.7 275.3 C-46.2 266.7 -46.2 266.7 -36.8 257.6 C-36.2 257.1 -35.7 256.6 -35.2 256.1 C-33.8 254.7 -32.4 253.4 -31 252 C-30.7 251.7 -30.7 251.7 -29 250.2 C-7.4 230.2 5.4 197.4 19.2 171.8 C23.6 163.6 28.2 155.5 32.9 147.5 C35.4 143.1 37.7 138.9 39 134 C34.9 137.6 32.5 142 29.7 146.6 C17.8 166.2 4.7 185.1 -8.6 203.8 C-9 204.5 -9.5 205.2 -10 205.9 C-13.3 210.4 -16.8 215 -22.3 216.8 C-27 217.1 -30.7 217.2 -35 215 C-37.4 212.2 -37.4 209 -37.3 205.4 C-36.6 200.4 -34.1 195.9 -31.8 191.4 C-31.3 190.3 -30.7 189.2 -30.2 188.1 C-24.5 176.8 -18.4 165.9 -12 155 C-10.7 152.8 -9.4 150.6 -8.2 148.4 C1.4 131.8 1.4 131.8 3.7 128.3 C4.2 127.6 4.6 126.8 5 126 C4.7 125.3 4.3 124.7 4 124 C3.3 125 2.6 126 1.8 127.1 C-13.2 148.5 -28.6 169.6 -45 190 C-45.7 190.9 -46.4 191.8 -47.1 192.7 C-49.5 195.6 -51.5 196.7 -55 198 C-59.4 197.8 -62.5 196.6 -66 194 C-68 191.3 -68.5 188.5 -68.4 185.2 C-66.6 174.6 -59.8 164.4 -55 155 C-54.5 154 -54 153 -53.4 151.9 C-51.7 148.6 -50 145.2 -48.2 141.9 C-47.7 140.8 -47.1 139.7 -46.6 138.6 C-43.9 133.5 -41.3 128.6 -38 124 C-38.3 123.3 -38.7 122.7 -39 122 C-44.8 129.7 -50.6 137.4 -56.2 145.2 C-76.4 173.7 -76.4 173.7 -84 176 C-87.9 176.4 -90.1 176.6 -93.4 174.4 C-96.1 170.3 -96.2 166.4 -95.4 161.6 C-86.5 133 -68.1 107.6 -51.8 82.8 C-45.7 73.6 -39.7 64.2 -33.9 54.8 C-29.7 48.1 -25.5 41.5 -21 35 C-21.3 34.3 -21.7 33.7 -22 33 Z" transform="translate(911,186)"/>
<path fill="#B9AECA" d="M0 0 C3.6 0.8 5.8 2.6 8 5.4 C13.7 15 16.4 26.6 18 37.4 C18.3 37.4 18.7 37.4 19 37.4 C19.2 36.2 19.5 34.9 19.7 33.6 C23 15.6 23 15.6 29 9.4 C33.3 6.6 37 6.8 42 7.4 C46.2 9.8 47.6 12 49 16.4 C49.3 18.9 49.5 21.3 49.6 23.7 C49.7 24.4 49.7 24.4 49.9 27.5 C49.9 28.5 50 29.4 50 30.4 C50.5 29.8 51 29.2 51.5 28.6 C62.3 16.1 62.3 16.1 70.1 15.2 C74.1 15.1 76.4 15.1 80 17.1 C82.2 19.7 82.8 21.1 83 24.4 C82.9 24.9 82.9 24.9 82 27.4 C82.7 27.1 83.3 26.8 84 26.5 C91.2 23.3 91.2 23.3 95.5 24 C98 25.4 98 25.4 100 28.4 C100.5 32.5 100.3 34.8 98.5 38.4 C92.9 45.3 87.5 50.3 79 53.4 C77.7 53.4 76.4 53.4 75 53.4 C76.3 49.7 78 48.8 81 46.4 C81.2 46.1 81.2 46.1 82 44.4 C79 46.4 76.1 48.3 73.3 50.7 C71 52.4 71 52.4 68 52.4 C63.5 43.9 64.3 38.4 67 29.4 C53.1 36.5 45.1 61.1 38.6 74.4 C38.2 75.2 37.9 75.9 37.5 76.7 C36.8 78.1 36.2 79.4 35.5 80.8 C34.8 82.4 33.9 83.9 33 85.4 C32.5 85.6 32.5 85.6 30 86.4 C29.9 87.2 29.7 87.9 29.6 88.7 C29 91.4 29 91.4 28.5 93.1 C27.8 96.4 28.2 99.7 28.5 103 C29.2 112.5 28.7 121.9 28 131.4 C28.4 130.9 28.8 130.3 29.2 129.7 C33.9 123.3 39.3 117 47 114.4 C49 114.2 49 114.2 51 114.2 C51.7 114.2 52.4 114.1 53.1 114.1 C55 114.4 55 114.4 56.7 115.6 C60.1 120.4 58.7 128 57.6 133.5 C53.6 151.1 44.8 165 31.9 177.4 C30 179.5 28.5 181.6 27 184 C24.4 188.1 21.4 190.8 17.7 193.9 C15.6 195.8 15 197.8 14 200.4 C11.9 201.2 11.9 201.2 10 201.4 C9.5 200.5 9.1 199.6 8.6 198.6 C6.7 195.8 5.3 195 2.1 194.1 C-14 189.6 -29.5 173.1 -37.9 159.3 C-41.3 153.1 -43.8 147.7 -43 140.4 C-42 137.6 -42 137.6 -40 135.4 C-34.3 133.8 -30.6 134.4 -25.3 137 C-21.7 139.2 -18.8 141.9 -15.7 144.8 C-14 146.4 -14 146.4 -13 146.4 C-13.2 145.4 -13.4 144.3 -13.6 143.2 C-17.8 122.5 -17.8 122.5 -13 112.4 C-10.3 108.8 -9 107.6 -4.5 106.7 C0.4 107.7 2.3 110.3 5 114.4 C6.4 117.5 7.4 120.6 8.4 123.9 C8.7 124.7 8.9 125.5 9.2 126.4 C9.8 128.4 10.4 130.4 11 132.4 C12.2 127.1 13.3 121.8 14.5 116.4 C14.9 114.6 15.3 112.8 15.7 111 C16.2 108.4 16.8 105.7 17.4 103.1 C17.5 102.3 17.7 101.5 17.9 100.7 C18.7 96.9 19.3 94.1 18 90.4 C16.6 88.3 15.1 86.2 13.5 84.2 C9.7 79 6.4 73.7 3.3 68.1 C2.9 67.4 2.5 66.8 2.1 66.1 C0.6 63.3 -1 60.4 -2.5 57.6 C-6.4 51.2 -11.8 46.8 -19.2 44.8 C-21.1 44.6 -21.1 44.6 -24 44.4 C-18.6 55.9 -10.8 64.4 -1.2 72.5 C3.8 76.9 8.4 81.7 13 86.4 C11 87.4 11 87.4 9.2 87 C6.8 86.2 4.4 85.4 2 84.4 C1.6 84.3 1.6 84.3 -0.4 83.5 C-8.2 80 -14 74.4 -20 68.4 C-20.7 67.8 -21.3 67.1 -22 66.5 C-29.6 58.6 -36.4 46.6 -36.3 35.6 C-36 33.4 -36 33.4 -34.2 30.9 C-30.3 28.3 -26.5 27.7 -22 28.4 C-18.2 29.9 -14.6 31.6 -11 33.4 C-11.1 32.8 -11.3 32.3 -11.4 31.7 C-13.5 22.5 -14.9 12.9 -10 4.4 C-7.3 0.5 -4.8 -0.3 0 0 Z M-1 10.4 C-0.6 17.6 0.8 23.8 3.1 30.6 C3.5 31.5 3.8 32.4 4.1 33.3 C6.9 41.5 10.3 49.5 14 57.4 C15.4 53.3 14.1 50.3 13 46.3 C12.8 45.5 12.6 44.6 12.4 43.8 C11.9 42.1 11.5 40.4 11 38.7 C10.3 36.1 9.6 33.6 8.9 31 C8.4 29.3 8 27.7 7.5 26 C7.3 25.2 7.1 24.5 6.9 23.7 C5.7 19.3 4.4 15.3 2 11.4 C1 11.1 0 10.8 -1 10.4 Z" transform="translate(606.98046875,222.5703125)"/>
<path fill="#B7B38E" d="M0 0 C0 0.7 0 1.3 0 2 C-5.8 4.2 -11.8 5.1 -17.9 6.1 C-18.9 6.3 -20 6.5 -21.1 6.7 C-23.7 7.1 -26.4 7.6 -29 8 C-28.1 7.9 -27.3 7.8 -26.4 7.7 C3.1 4.7 32.4 3.4 62 7 C62.8 7.1 63.6 7.2 64.5 7.3 C71.1 8.1 77.7 9 84 11.5 C97.3 16.7 110.4 16.7 124.6 16.7 C125 16.7 125 16.7 127.1 16.7 C128.7 16.7 130.3 16.7 131.9 16.7 C136.7 16.7 139.9 17.5 144 20 C143.7 21 143.3 22 143 23 C145 23.7 147 24.3 149 25 C149 25.7 149 26.3 149 27 C146.3 27.8 143.7 28.5 141 29.3 C140.3 29.5 139.6 29.7 138.8 30 C133.8 31.4 128.9 32.3 123.8 33.2 C113.9 34.9 104.6 38.5 95.2 42 C75 49.5 55.1 55.8 34 60 C33.1 60.2 32.2 60.4 31.2 60.6 C-14.4 69.5 -61.5 65.4 -105.9 53 C-107 52.7 -108.2 52.4 -109.3 52 C-119.7 49 -129 44.9 -138 39 C-137.7 38 -137.3 37 -137 36 C-134.9 35.3 -134.9 35.3 -133 35 C-133 34.3 -133 33.7 -133 33 C-134 32.7 -135 32.3 -136 32 C-133.3 27.9 -130.1 27.7 -125.5 26.7 C-124.7 26.5 -123.8 26.3 -123 26.1 C-120.2 25.4 -117.5 24.8 -114.8 24.1 C-104.1 21.6 -93.7 19 -83.4 15.2 C-77.1 13 -70.5 11.5 -64 9.9 C-63.6 9.9 -63.6 9.9 -61.8 9.4 C-41.7 4.6 -20.8 -0.3 0 0 Z M48.2 9.5 C45.6 10.1 43.3 10 40.6 9.9 C31.8 9.9 23.1 10.7 14.4 11.6 C11.5 11.9 8.7 12.1 5.8 12.4 C4 12.6 2.2 12.8 0.3 12.9 C-0.1 13 -0.1 13 -2.3 13.2 C-6.8 13.6 -10.7 14.4 -15 16 C-17.6 16.5 -20.3 16.9 -22.9 17.3 C-30.5 18.5 -38 20 -45.4 21.6 C-46.4 21.8 -47.4 22 -48.5 22.2 C-49.4 22.4 -50.3 22.6 -51.3 22.8 C-51.7 22.9 -51.7 22.9 -53.8 23.4 C-56 24 -56 24 -59 26 C-53.7 26.1 -48.7 25.6 -43.4 24.8 C-41.8 24.5 -40.1 24.2 -38.4 24 C-35.8 23.6 -33.2 23.1 -30.6 22.7 C-7 18.9 16.7 17.7 40.6 16.9 C43 16.8 45.3 16.7 47.7 16.6 C53.5 16.4 59.2 16.2 65 16 C65 16.7 65 17.3 65 18 C68.2 17.9 71.5 17.7 74.7 17.6 C75.6 17.5 76.5 17.5 77.5 17.4 C77.9 17.4 77.9 17.4 80.1 17.3 C80.9 17.3 81.8 17.2 82.6 17.2 C85.1 17 87.5 16.5 90 16 C84.1 12.1 77.1 10.8 70.1 10.2 C68.2 10 66.4 9.7 64.6 9.4 C53.3 8.1 53.3 8.1 48.2 9.5 Z M-97 41 C-88.5 46.7 -76.7 47.5 -66.7 48.3 C-64.8 48.5 -62.9 48.7 -61 49 C-60.8 49.3 -60.8 49.3 -60 51 C-57.2 51.9 -55.6 52.1 -52.8 52.1 C-51.6 52 -50.3 52 -49 52 C-49 51.7 -49 51.3 -49 51 C-51 51 -53 51 -55 51 C-55 50.3 -55 49.7 -55 49 C-54 49.3 -53 49.7 -52 50 C-50.6 50.1 -49.2 50.1 -47.8 50.1 C-47.4 50.1 -47.4 50.1 -45.3 50.1 C-44.8 50.1 -44.8 50.1 -42.7 50.1 C-42.3 50.1 -42.3 50.1 -40.1 50.1 C-35.6 50.1 -31.4 49.9 -27 49 C-27 48.7 -27 48.3 -27 48 C-26.3 48 -25.7 47.9 -25 47.9 C-21.9 47.8 -18.9 47.7 -15.9 47.6 C-14.8 47.5 -13.8 47.5 -12.7 47.4 C-7.7 47.2 -2.9 47 2 46 C2 45.7 2 45.3 2 45 C1.3 45 0.6 45 -0.1 45.1 C-6.8 45.2 -13.5 45.4 -20.2 45.5 C-23.7 45.6 -27.1 45.6 -30.6 45.7 C-48.7 46.2 -65.3 46 -82.9 41.6 C-87.6 40.7 -92.2 40.7 -97 41 Z M-52 54 C-52.3 55 -52.7 56 -53 57 C-38.7 58.2 -24.3 58.8 -10 57 C-10 56.7 -10 56.3 -10 56 C-14.5 55.7 -19.1 55.4 -23.6 55.1 C-25.1 55 -26.7 55 -28.2 54.9 C-36.2 54.3 -44 53.9 -52 54 Z" transform="translate(157,446)"/>
<path fill="#B7B38E" d="M0 0 C0.7 0.2 0.7 0.2 4 1 C9.9 31.7 1.7 63.4 -12 91 C-12.5 92 -13 93.1 -13.5 94.1 C-20.6 108.1 -30 120.9 -39.1 133.6 C-50.7 150 -60.5 166.8 -69 185 C-69.2 185.4 -69.2 185.4 -70.1 187.3 C-75.2 198 -77 208.7 -78.6 220.3 C-80.2 231.6 -82.7 238.2 -91 246 C-92.7 248 -94.4 250 -96 252 C-96.7 251.7 -97.3 251.3 -98 251 C-98 250 -98 249 -98 248 C-97.9 244.2 -98 240.3 -98 236.5 C-98 234.9 -98 233.2 -98 231.6 C-97.8 219 -100.4 208.6 -104.7 196.7 C-107.3 189.2 -109.5 181.6 -111.6 173.9 C-112 172.5 -112.4 171.1 -112.8 169.7 C-114.2 164.6 -115.6 159.6 -117 154.5 C-123.9 129.9 -130.7 105.3 -140.6 81.8 C-141 80.6 -141.5 79.5 -142 78.4 C-147 66.4 -152.8 55.3 -160.1 44.7 C-162.3 41.5 -163.5 38.8 -164 35 C-163.3 35 -162.6 35 -161.8 35.1 C-159 35 -159 35 -156.6 34.3 C-154 34 -154 34 -151.8 35.2 C-149.5 37.1 -147.2 39 -145 41 C-144.4 41.5 -143.8 42 -143.2 42.5 C-116.1 67.6 -106.6 107.4 -99 142 C-99 141.1 -98.9 140.2 -98.9 139.3 C-97.9 114.6 -96.4 90.1 -94.7 65.5 C-94.5 63.1 -94.3 60.8 -94.2 58.4 C-93.9 54.7 -93.6 50.9 -93.4 47.1 C-93.3 45.7 -93.2 44.3 -93.1 43 C-91.4 19.4 -91.4 19.4 -88 16 C-87 16 -86 16 -85 16 C-85 18.6 -85 21.3 -85 24 C-84.3 24 -83.7 24 -83 24 C-82.7 22 -82.3 20 -82 18 C-81 17.7 -80 17.3 -79 17 C-78.9 27.1 -79.2 37.1 -79.8 47.2 C-81 69.2 -81.8 91.3 -82.5 113.4 C-82.7 117.3 -82.8 121.2 -82.9 125.1 C-83.1 128.9 -83.2 132.7 -83.3 136.5 C-83.4 138.3 -83.4 140.1 -83.5 141.9 C-83.8 150.9 -84.1 160 -84 169 C-83.6 167.8 -83.2 166.6 -82.8 165.4 C-76.1 145.3 -67.6 126.7 -56 109 C-55.3 107.9 -54.6 106.9 -53.9 105.8 C-50.7 100.9 -47.4 96.1 -44 91.2 C-42.6 89.2 -41.2 87.1 -39.8 85 C-38 82.5 -36.3 80 -34.5 77.5 C-20.4 57.3 -12 36 -4.9 12.7 C-3.5 8.3 -1.9 4.2 0 0 Z M-18 72 C-19.1 73.6 -20.1 75.3 -21.2 77 C-21.8 78.1 -22.5 79.2 -23.2 80.3 C-23.9 81.5 -24.6 82.6 -25.3 83.8 C-26.8 86.2 -28.3 88.6 -29.7 91.1 C-30.1 91.7 -30.5 92.3 -30.8 92.9 C-33.4 97 -36 101.2 -38.7 105.3 C-44.1 113.7 -49.2 122.3 -54.2 130.9 C-54.8 132.1 -55.5 133.2 -56.2 134.4 C-56.8 135.4 -57.4 136.5 -58 137.6 C-58.6 138.5 -59.1 139.5 -59.7 140.5 C-60.8 142.7 -61.5 144.6 -62 147 C-57.6 142.9 -54.3 138.4 -51 133.4 C-50.4 132.6 -49.9 131.8 -49.3 130.9 C-48.1 129.2 -46.9 127.4 -45.8 125.6 C-44.6 123.9 -43.5 122.2 -42.3 120.5 C-36 111.2 -30.1 101.8 -24.9 91.9 C-24.4 91 -24 90.2 -23.5 89.3 C-20.6 83.7 -18.6 78.1 -17 72 C-17.3 72 -17.7 72 -18 72 Z M-132 80 C-131.8 80.6 -131.6 81.2 -131.4 81.8 C-129 90 -129 90 -128.4 92.1 C-126.1 99.6 -123.7 107.1 -121.3 114.6 C-120.9 115.9 -120.5 117.2 -120.1 118.5 C-119 121.7 -118 124.8 -117 128 C-116.7 128 -116.3 128 -116 128 C-116.5 119.6 -118.2 112.1 -121.6 104.4 C-122.8 101.4 -123.6 98.5 -124.3 95.3 C-125.7 90.4 -127.7 85.6 -130 81 C-130.7 80.7 -131.3 80.3 -132 80 Z" transform="translate(706,407)"/>
<path fill="#B9AECA" d="M0 0 C6.6 5.3 9.4 12.4 11.6 20.3 C11.7 20.7 11.7 20.7 12.3 22.6 C14.4 30.4 16.4 37.8 16 46 C16.7 46 17.3 46 18 46 C18 45.6 18 45.6 18.3 43.5 C19.1 39.3 20.7 36 22.6 32.2 C23 31.5 23.3 30.8 23.7 30 C28.9 20.1 35.1 12.7 45 7 C47.9 6.2 49.3 5.8 52.2 6.7 C54.4 8.3 55 9.4 56 12 C56 14.8 56 14.8 55.6 17.8 C55.5 18.7 55.4 19.7 55.3 20.7 C55.2 21.5 55.1 22.2 55 23 C55.6 22.6 56.3 22.3 56.9 21.9 C66.4 16.8 66.4 16.8 72 18 C75.3 20.1 78.2 22.5 80 26 C80.8 31.6 80.5 35.9 77.4 40.7 C72.1 47.8 65.6 53.2 58.6 58.8 C56.4 60.7 54.4 62.5 52.4 64.6 C46.6 70.6 38.7 77.2 30 77.4 C26.9 77.3 25.9 76.9 23.1 75.2 C21 73 20.3 71.9 20 69 C19.3 69 18.7 69 18 69 C17.7 69.7 17.5 70.5 17.2 71.2 C16.1 73.9 14.8 75.8 13 78 C7.2 77.3 3.8 72 0.3 67.7 C-7.1 58.1 -12.2 46.9 -17.1 35.9 C-22.1 24.9 -22.1 24.9 -28 22 C-21.9 38.1 -13.5 51.5 -2.7 64.9 C-1 67 -1 67 -1 68 C-11.4 67.6 -18.3 59.5 -25.1 52.3 C-33 43.6 -39.8 31 -40.6 19.2 C-40.4 16.1 -39.8 14 -37.9 11.5 C-34.4 8.5 -32.7 7.8 -28 8 C-20.8 10 -16.5 15.4 -12 21 C-12 20 -12.1 19 -12.1 17.9 C-12.2 16.6 -12.2 15.2 -12.2 13.9 C-12.3 13.5 -12.3 13.5 -12.4 11.9 C-12.5 6.7 -11.2 3.9 -8 0 C-5 -1.5 -3.2 -0.9 0 0 Z" transform="translate(628,150)"/>
<path fill="#B7B38C" d="M0 0 C3.7 3.6 7 7.3 10.1 11.3 C10.6 11.9 11.1 12.5 11.6 13.1 C17 20.2 22 27.6 27 35 C27.8 36.2 28.6 37.4 29.5 38.6 C32 42.4 34.5 46.2 37 50 C37.5 50.7 38 51.5 38.5 52.2 C45.1 62.3 51.6 72.5 58.1 82.8 C58.4 83.2 58.4 83.2 60 85.8 C69.7 101.3 69.7 101.3 69 107 C68.7 107.2 68.7 107.2 67 108 C67.3 109.1 67.6 110.2 67.9 111.3 C72.5 129.1 72.5 129.1 71 138 C70.5 138.6 70 139.2 69.5 139.8 C67.3 143.1 67.4 146.4 67.3 150.2 C67.3 151 67.2 151.7 67.2 152.5 C67.1 154.3 67.1 156.2 67 158 C66 157.7 65 157.3 64 157 C63.1 155.2 63.1 155.2 62.4 153.1 C61.5 150.3 61.1 149.1 59 147 C58.7 150 58.3 152.9 58 156 C55.2 154.6 54.8 152.8 53.5 149.9 C53 148.8 52.6 147.7 52 146.6 C51.5 145.5 51 144.3 50.5 143.1 C46.6 134.4 42.4 125.9 37.9 117.4 C34.9 111.7 31.9 105.9 29 100.1 C18.1 78.5 7 57.3 -6.2 37 C-6.7 36.3 -7.2 35.5 -7.7 34.8 C-8.6 33.4 -9.4 32.1 -10.3 30.8 C-12.3 27.9 -13 26.2 -12.9 22.7 C-12 20 -12 20 -9 18 C-8.7 17 -8.3 16 -8 15 C-7.3 15.3 -6.7 15.7 -6 16 C-5.7 13.7 -5.3 11.4 -5 9 C-3.7 9 -2.4 9 -1 9 C-1.2 8.4 -1.4 7.9 -1.6 7.3 C-2.1 4.3 -1.3 2.7 0 0 Z" transform="translate(659,766)"/>
<path fill="#B9AECA" d="M0 0 C2.7 2.1 2.7 2.1 5 5 C5.4 5.5 5.8 6 6.3 6.6 C13.4 16.4 14.6 30.3 16 42 C16.3 42 16.7 42 17 42 C17.2 40.8 17.4 39.7 17.7 38.4 C19.5 29.1 21.5 21 27 13 C27.5 12.3 28 11.6 28.5 10.9 C31 7.6 32.8 6.1 36.6 4.3 C40 4 40 4 42.9 5.4 C46.6 10 46.2 14.2 45.6 19.9 C45.1 23.6 44.6 27.3 44 31 C44.8 30.3 45.5 29.6 46.3 28.8 C63.1 12.8 63.1 12.8 74 13 C76.9 14.2 78.4 15.3 80.4 17.7 C81.9 23.4 80.2 28.1 77.7 33.2 C69.2 47.8 54.3 61.2 39 68 C38.3 68 37.7 68 37 68 C37 66 37 66 38 65 C36.9 65.7 35.9 66.4 34.8 67.1 C32.4 68.5 31.5 69.1 28.8 68.6 C28.2 68.4 27.6 68.2 27 68 C33.3 61.4 39.9 55.7 47 50 C55.2 43.4 61.4 35.9 67 27 C60.7 32.5 54.7 38.2 48.8 44.1 C48.1 44.7 47.5 45.4 46.8 46.1 C42.9 50 39.2 54 35.5 58.3 C33.8 60.2 32 62.1 30.1 63.9 C25.3 68.5 25.5 73 24.7 79.5 C24 83 23 85.1 21 88 C17.4 86.8 17 85.9 14.9 82.8 C12.5 79.2 10 75.7 7.3 72.4 C-6.6 54.8 -16.3 34.2 -16.4 11.4 C-15.8 6.7 -14.4 3.3 -10.8 0.1 C-7 -1.4 -3.8 -1.3 0 0 Z M-5 12 C-4.4 22.9 0.4 32.8 6 42 C7.4 37.9 6.1 34.9 4.9 30.9 C4.6 30.2 4.4 29.4 4.2 28.6 C2.4 22.8 0.1 17.3 -3 12 C-3.7 12 -4.3 12 -5 12 Z" transform="translate(633,85)"/>
<path fill="#B9AECA" d="M0 0 C4.7 4.6 5.2 8.9 5.4 15.2 C5.3 23.8 3 31.1 0 39 C-0.4 40.2 -0.9 41.4 -1.4 42.7 C-4.2 50 -7.3 57.1 -10.6 64.2 C-11 65 -11.4 65.8 -11.8 66.7 C-13.7 70.7 -15.4 74.2 -19 77 C-19.7 77 -20.3 77 -21 77 C-21.2 76.7 -21.2 76.7 -22 75 C-22.1 75.3 -22.1 75.3 -22.5 76.9 C-22.8 77.7 -23 78.5 -23.2 79.4 C-23.5 80.2 -23.7 81 -24 81.8 C-25.2 84.5 -26.3 85 -29 86 C-38.2 81 -41.5 72.4 -45.2 63.1 C-45.6 62.2 -45.9 61.4 -46.3 60.5 C-49.5 52.2 -51.3 44.2 -51.3 35.2 C-51.3 34 -51.3 32.8 -51.4 31.5 C-50.9 26.9 -49.4 23.5 -46.2 20.1 C-42.9 18.5 -40.7 18.5 -37 19 C-30.3 22.8 -28.5 29 -26 36 C-25.7 35 -25.4 34 -25.1 32.9 C-17.8 8.2 -17.8 8.2 -8.6 1.2 C-5.4 -0.3 -3.5 -0.6 0 0 Z" transform="translate(690,6)"/>
<path fill="#B7B28F" d="M0 0 C1.5 2.8 2.3 5.2 2.8 8.4 C2.9 9.2 3.1 10.1 3.2 11 C3.3 11.9 3.5 12.8 3.6 13.8 C3.7 14.7 3.9 15.7 4 16.7 C4.5 19.8 4.9 22.9 5.4 26 C6 30 6.6 34.1 7.1 38.1 C7.3 39.1 7.4 40.1 7.6 41.2 C8.6 47.5 9.7 53.7 11.1 60 C13.3 70.2 14.1 80.5 14.8 91 C15.9 106.7 17.1 122.4 19.9 138 C20 138.9 20.2 139.8 20.4 140.7 C20.5 141.5 20.7 142.3 20.8 143.1 C21 145 21 145 20 148 C14.1 135 10.3 121.9 7 108 C6.7 113.6 6.3 119.2 6 125 C3 124 3 124 1.7 121.6 C-7.8 95.7 -8.1 64.5 -8.9 37.1 C-9 35 -9.2 32.8 -9.4 30.7 C-10.2 18.6 -6.1 10.3 0 0 Z" transform="translate(632,816)"/>
<path fill="#CEAC92" d="M0 0 C0.7 0 1.3 0 2 0 C0.4 4.4 -1.8 8.4 -4.2 12.4 C-4.7 13.1 -5.1 13.8 -5.6 14.6 C-18 35.4 -30.5 56.2 -44.4 76.2 C-59.6 98.2 -73.3 121.1 -86.6 144.3 C-95.3 159.5 -104.2 174.4 -113.3 189.3 C-114.5 191.1 -115.5 193 -116.5 194.9 C-116.8 195.2 -116.8 195.2 -118 197 C-119 197 -120 197 -121 197 C-120.4 192.5 -118.6 189.2 -116.3 185.4 C-115.6 184.1 -114.9 182.9 -114.1 181.7 C-113.8 181.1 -113.4 180.4 -113.1 179.8 C-110.6 175.6 -108.3 171.3 -106 167 C-106.7 167 -107.3 167 -108 167 C-108.1 167.6 -108.2 168.2 -108.4 168.8 C-109 171 -109 171 -111 174 C-111.7 174 -112.3 174 -113 174 C-111.3 169 -108.4 164.8 -105.6 160.4 C-105.1 159.6 -104.6 158.8 -104.1 158.1 C-101.9 154.7 -99.9 151.7 -97 149 C-96.7 149.3 -96.3 149.7 -96 150 C-88.2 136.4 -80.5 122.8 -73 109 C-73.3 108.8 -73.3 108.8 -75 108 C-74 107 -73 106 -72 105 C-71.7 105.3 -71.3 105.7 -71 106 C-70.4 104.9 -69.7 103.9 -69.1 102.8 C-68.7 102.1 -68.3 101.5 -68 100.9 C-67 99 -67 99 -66.6 97.1 C-65.9 94.7 -64.9 92.9 -63.6 90.7 C-63.1 89.9 -62.6 89.1 -62.1 88.2 C-61.6 87.4 -61.1 86.6 -60.6 85.7 C-57.4 80.2 -54.4 74.9 -52 69 C-49.7 65 -47.1 61.3 -43 59 C-42 59 -41 59 -40 59 C-38.7 57.6 -38.7 57.6 -37.4 55.6 C-37 54.9 -36.5 54.2 -36 53.4 C-35.5 52.6 -35 51.8 -34.4 51 C-33.9 50.2 -33.4 49.4 -32.8 48.5 C-31.2 46 -29.6 43.5 -28 41 C-27.6 40.3 -27.1 39.6 -26.6 38.9 C-19.9 28.3 -13.5 17.7 -7 7 C-6.7 7.2 -6.7 7.2 -5 8 C-4.8 7.7 -4.8 7.7 -4 6.2 C-3.8 5.9 -3.8 5.9 -2.6 4 C-2.4 3.6 -2.4 3.6 -1.3 1.8 C-0.9 1.2 -0.4 0.6 0 0 Z" transform="translate(1068,536)"/>
<path fill="#B9AECA" d="M0 0 C2.6 1.5 2.6 1.5 4 4 C5.5 12.3 1.2 18.3 -3.3 24.9 C-13.2 37.6 -31.2 46.9 -47 49 C-48 48.7 -49 48.3 -50 48 C-46.7 36.3 -32.4 25.8 -23.2 18.8 C-21 17 -19 15.1 -17 13 C-17.8 13.5 -18.6 14 -19.4 14.6 C-19.8 14.8 -19.8 14.8 -22 16 C-22.7 15.7 -23.3 15.3 -24 15 C-23.4 9.6 -21.1 7.9 -17.1 4.6 C-11.6 0.5 -6.8 -1.1 0 0 Z" transform="translate(682,367)"/>
<path fill="#B9AECA" d="M0 0 C2.5 3.7 2.3 5.3 1.7 9.6 C0 15.4 -4.6 20 -9 24 C-8.3 23.6 -7.6 23.3 -6.8 22.9 C-3.7 21.9 -2.1 22.1 1 23 C0.7 26.2 0.3 27.7 -1.9 30.1 C-10.7 35.6 -21.6 38.9 -32 38 C-35.7 37.1 -39.4 36.1 -43 35 C-35.5 24.2 -26 16.2 -15.6 8.3 C-14.2 7.1 -12.7 5.9 -11.3 4.7 C-10.5 4.1 -9.7 3.5 -8.9 2.8 C-8.3 2.3 -7.6 1.7 -7 1.1 C-4.4 -0.3 -2.9 -0.4 0 0 Z" transform="translate(678,283)"/>
<path fill="#B9AECA" d="M0 0 C2 2 2.9 3.3 3.3 6.2 C1.9 20.9 -9 33.1 -19.8 42.5 C-22.9 44.6 -25.4 45.4 -29 46 C-29.3 45.3 -29.7 44.7 -30 44 C-29.6 43.4 -29.1 42.7 -28.7 42.1 C-28.1 41.3 -27.6 40.5 -27 39.6 C-26.7 39.2 -26.7 39.2 -25.3 37.2 C-24 35 -24 35 -24 33 C-27.1 34 -27.7 34.6 -29.7 37.1 C-30.1 37.5 -30.1 37.5 -32 40 C-32 34.6 -28.5 30 -26 25.3 C-25 23.4 -24 21.5 -23 19.6 C-11.3 -2.6 -11.3 -2.6 0 0 Z" transform="translate(711,41)"/>
<path fill="#CDA98B" d="M0 0 C0.7 0.7 1.3 1.3 2 2 C1.4 3 0.9 4 0.3 5.1 C-0.5 6.6 -1.4 8 -2.2 9.5 C-2.6 10.3 -3.1 11.1 -3.5 11.9 C-6.1 16.5 -8.6 21.2 -11.1 25.8 C-16.6 36.1 -22.3 46.3 -28.3 56.2 C-33.4 64.6 -38.2 73 -43.1 81.5 C-43.7 82.6 -44.3 83.6 -44.9 84.7 C-45.5 85.7 -46 86.6 -46.6 87.6 C-47.7 89.4 -48.8 91.2 -50 93 C-50.7 93 -51.3 93 -52 93 C-50.5 86.4 -48 80.5 -45 74.4 C-44.7 73.7 -44.3 73 -44 72.3 C-41.4 67.1 -41.4 67.1 -38 66 C-37.3 64.4 -36.6 62.7 -36 61 C-35 59.5 -33.9 58 -32.8 56.6 C-28.4 50.4 -25.2 43.8 -22 37 C-18.4 29.5 -14.8 22.3 -9.8 15.6 C-6.3 10.6 -3.2 5.3 0 0 Z" transform="translate(744,586)"/>
<path fill="#BCB5AE" d="M0 0 C-0.3 2 -0.7 4 -1 6 C-2.9 6.6 -2.9 6.6 -5 7 C-5.2 6.8 -5.2 6.8 -6 6 C-7.8 6.3 -7.8 6.3 -10.1 6.9 C-10.8 7.1 -11.5 7.3 -12.3 7.5 C-12.9 7.7 -13.4 7.8 -14 8 C-13 8.7 -12 9.3 -11 10 C-14.6 11.1 -17.8 12 -21.6 12.4 C-27.6 13.1 -33.3 15.1 -39 17 C-39.9 17.3 -40.7 17.5 -41.6 17.8 C-42.4 18.1 -43.2 18.3 -44 18.6 C-46 19 -46 19 -49 18 C-48.3 18 -47.7 18 -47 18 C-47 16 -47 14 -47 12 C-21.4 4 -21.4 4 -12.2 1.5 C-11.7 1.4 -11.7 1.4 -9 0.6 C-5.9 -0 -3.1 -0.1 0 0 Z" transform="translate(382,625)"/>
<path fill="#D6A996" d="M0 0 C0.7 0 1.3 0 2 0 C0.6 5 -1.6 9.1 -4.3 13.5 C-5.2 15 -6.1 16.5 -7 18 C-7.5 18.8 -8 19.6 -8.5 20.4 C-10.7 24.1 -12.8 27.8 -15 31.4 C-16.1 33.3 -17.2 35.2 -18.4 37.1 C-20.7 41.1 -23 45 -25.2 49 C-25.8 50.1 -26.4 51.2 -27 52.3 C-27.2 52.8 -27.2 52.8 -28.4 55.1 C-30.5 57.6 -31.9 57.5 -35 58 C-34.6 57.3 -34.1 56.7 -33.7 56 C-29.5 49.5 -25.6 42.9 -21.9 36.2 C-17.3 28 -12.6 19.8 -7.8 11.7 C-7.3 10.7 -6.7 9.8 -6.1 8.8 C-5.6 8 -5.1 7.1 -4.6 6.2 C-4.1 5.4 -3.7 4.7 -3.2 3.9 C-2 2 -2 2 0 0 Z" transform="translate(636,740)"/>
<path fill="#CBA994" d="M0 0 C1 3 1 3 0.2 5 C-0.2 5.8 -0.6 6.6 -1.1 7.4 C-1.5 8.2 -2 9.1 -2.5 10 C-3 11 -3.6 11.9 -4.1 12.9 C-4.7 13.8 -5.2 14.8 -5.8 15.8 C-11 25.3 -16.7 34.5 -22.5 43.6 C-23.5 45.3 -24.6 46.9 -25.6 48.6 C-26.1 49.4 -26.6 50.2 -27.1 51 C-27.4 51.4 -27.4 51.4 -28.5 53.3 C-30.3 55.3 -31.4 55.6 -34 56 C-32.3 50.8 -29.2 46.6 -26.2 42.1 C-19.4 31.7 -12.9 21.1 -6.5 10.5 C-4.4 7 -2.2 3.5 0 0 Z" transform="translate(1027,692)"/>
<path fill="#D8B0A2" d="M0 0 C1.3 0.3 2.6 0.7 4 1 C3.1 2.6 2.2 4.2 1.2 5.8 C0.7 6.6 0.2 7.5 -0.3 8.4 C-2 11 -2 11 -3.8 12.8 C-7.1 16.1 -9.3 20 -11.7 24 C-11.9 24.4 -11.9 24.4 -13.2 26.4 C-17.2 33 -17.2 33 -18 37 C-18.7 37 -19.3 37 -20 37 C-20.2 37.7 -20.5 38.4 -20.8 39.2 C-22.1 42.2 -23.8 44.5 -26 47 C-26.7 46.3 -27.3 45.7 -28 45 C-16 23.6 -16 23.6 -10.7 16.4 C-8.4 13.1 -6.2 9.8 -4.1 6.4 C-3.7 5.7 -3.3 5.1 -2.8 4.5 C-1.9 3 -0.9 1.5 0 0 Z" transform="translate(664,694)"/>
<path fill="#D6A997" d="M0 0 C0.7 0.7 1.3 1.3 2 2 C-6.2 15.6 -14.9 28.8 -25.7 40.5 C-27 42 -27 42 -29 45 C-29.7 44.7 -30.3 44.3 -31 44 C-24.7 34.7 -18.2 25.5 -11.6 16.3 C-7.7 10.9 -3.8 5.5 0 0 Z" transform="translate(630,692)"/>
<path fill="#BEB4CD" d="M0 0 C1 0 2 0 3 0 C3.7 1.6 4.3 3.3 5 5 C5.3 5 5.7 5 6 5 C6.5 20.1 6.5 20.1 3 27 C3.3 28.3 3.7 29.7 4 31 C3.9 33.3 3.8 35.5 3.6 37.8 C3.5 38.3 3.5 38.3 3.3 41.3 C3.2 42.2 3.1 43.1 3 44 C2.7 44 2.3 44 2 44 C0.8 35 0.7 26 0.4 16.9 C0.4 15.3 0.4 13.6 0.3 12 C0.2 8 0.1 4 0 0 Z" transform="translate(523,505)"/>
<path fill="#DED9E2" d="M0 0 C0.3 0 0.7 0 1 0 C2.1 5.3 3.3 10.6 4.4 16 C4.8 17.8 5.2 19.6 5.6 21.4 C6.1 24 6.7 26.6 7.2 29.2 C7.4 30 7.6 30.8 7.8 31.6 C8.6 35.5 9.2 39 9 43 C6.4 38.4 5.4 33.4 4 28.3 C3.2 25.7 2.4 23.4 1 21 C0.3 21.3 -0.3 21.7 -1 22 C-3.3 13.6 -3.3 13.6 -3 9 C-2.7 10 -2.3 11 -2 12 C-1.3 11.7 -0.7 11.3 0 11 C0 7.4 0 3.7 0 0 Z" transform="translate(464,431)"/>
<path fill="#C3BCC4" d="M0 0 C-0.1 1.8 -0.1 1.8 -1 4 C-3.3 5.3 -5.3 6.2 -7.8 7.2 C-8.1 7.3 -8.1 7.3 -9.6 8 C-13.1 9.4 -16.4 10.4 -20 11 C-19.8 8.7 -19.8 8.7 -19 6 C-16.9 4.5 -16.9 4.5 -14.3 3.3 C-13.4 2.9 -12.5 2.5 -11.6 2.1 C-3.7 -1.2 -3.7 -1.2 0 0 Z" transform="translate(335,641)"/>
<path fill="#BBB1CB" d="M0 0 C6.6 5.7 8.4 16.2 10.3 24.3 C10.9 26.6 11.6 28.6 12.6 30.7 C14.9 36.2 16.4 42 16 48 C14.1 45.1 13.2 43 12.2 39.7 C11.9 38.6 11.5 37.6 11.2 36.5 C10.8 35.4 10.5 34.3 10.1 33.1 C9.8 32 9.4 30.9 9 29.7 C8 26.5 7 23.2 6 20 C5.8 19.2 5.5 18.5 5.3 17.7 C3.4 11.8 1.7 5.9 0 0 Z" transform="translate(574,487)"/>
<path fill="#CCADA4" d="M0 0 C1.3 0 2.6 0 4 0 C3.4 4.5 1.5 7.9 -0.8 11.8 C-1.5 13 -2.2 14.2 -2.9 15.5 C-3.3 16.1 -3.6 16.7 -4 17.3 C-5.4 19.6 -6.7 22 -8 24.4 C-8.4 25.1 -8.8 25.8 -9.2 26.5 C-9.3 26.8 -9.3 26.8 -10 28 C-10.9 24.9 -11 23.1 -10 20 C-10.3 20.7 -10.7 21.3 -11 22 C-11.7 21.7 -12.3 21.3 -13 21 C-12.2 19.8 -11.4 18.7 -10.6 17.5 C-10.2 16.9 -9.7 16.2 -9.3 15.5 C-9.1 15.3 -9.1 15.3 -8 14 C-7.3 14 -6.7 14 -6 14 C-5.2 12.4 -4.4 10.8 -3.6 9.2 C-3.3 8.8 -3.3 8.8 -2.2 6.6 C-1.2 4.4 -0.5 2.4 0 0 Z" transform="translate(1084,647)"/>
<path fill="#DAB6A2" d="M0 0 C0.7 0.3 1.3 0.7 2 1 C0.8 4.7 -0.5 8.4 -2 12 C-2.4 12.9 -2.7 13.9 -3.1 14.8 C-3.4 15.5 -3.7 16.3 -4 17 C-4.7 16.3 -5.3 15.7 -6 15 C-6.6 15.8 -7.2 16.5 -7.8 17.3 C-9.5 19.3 -11.1 21.2 -13 23 C-13.7 22.3 -14.3 21.7 -15 21 C-10.1 13.9 -5.1 6.9 0 0 Z" transform="translate(1077,602)"/>
<path fill="#DAC0B1" d="M0 0 C0.7 0 1.3 0 2 0 C0.2 4.9 -2.3 9.5 -4.8 14.1 C-5.2 14.9 -5.7 15.7 -6.1 16.5 C-8.5 20.9 -10.7 24.1 -15 27 C-14.4 22.2 -12.4 18.5 -10.1 14.2 C-9.8 13.6 -9.4 12.9 -9.1 12.2 C-6.4 7.1 -6.4 7.1 -3 6 C-1.3 2.9 -1.3 2.9 0 0 Z" transform="translate(960,703)"/>
<path fill="#B7B19F" d="M0 0 C-0.3 0.7 -0.7 1.3 -1 2 C-2.6 2.2 -4.3 2.4 -5.9 2.6 C-9.9 3.4 -13.4 5.2 -17 7 C-17.7 7.3 -18.4 7.7 -19.2 8 C-21 9 -21 9 -22.4 10.5 C-24.6 12.6 -27.1 13.2 -30 14 C-30.3 13.3 -30.7 12.7 -31 12 C-30 9 -30 9 -28.1 8 C-27.4 7.7 -26.6 7.3 -25.7 7 C-24.9 6.7 -24 6.3 -23.1 6 C-22.6 5.8 -22.6 5.8 -20.3 4.9 C-19.4 4.6 -18.5 4.2 -17.6 3.9 C-3.8 -1.5 -3.8 -1.5 0 0 Z" transform="translate(337,639)"/>
<path fill="#DCC2B0" d="M0 0 C-1.3 3.3 -2.7 6.7 -4 10 C-4.7 10 -5.3 10 -6 10 C-6.1 10.4 -6.1 10.4 -6.8 12.3 C-7.9 14.9 -8.9 16.2 -11 18 C-12 14.8 -12.1 13.3 -10.9 10.2 C-10.3 9.2 -9.8 8.3 -9.2 7.3 C-8.7 6.4 -8.2 5.4 -7.6 4.4 C-5.4 1.1 -4 0 0 0 Z" transform="translate(1099,641)"/>
<path fill="#BCB2C6" d="M0 0 C0.3 0 0.7 0 1 0 C1 4.8 1.1 9.5 1.1 14.3 C1.1 15.9 1.1 17.6 1.2 19.2 C1.2 21.5 1.2 23.8 1.2 26.2 C1.2 26.9 1.2 27.6 1.2 28.4 C1.2 32.4 0.9 34.3 -1 38 C-1.7 31.7 -2.3 25.5 -3 19 C-2 19 -1 19 0 19 C0 12.7 0 6.5 0 0 Z" transform="translate(528,539)"/>
<path fill="#B7B298" d="M0 0 C0.7 0.7 1.3 1.3 2 2 C4.9 2.3 7.7 2.5 10.6 2.6 C11.4 2.7 12.2 2.7 13.1 2.7 C15 2.8 17 2.9 19 3 C19 3.7 19 4.3 19 5 C8.4 4.7 -2.1 4.3 -13 4 C-13.3 3 -13.7 2 -14 1 C-4.4 -0.3 -4.4 -0.3 0 0 Z" transform="translate(171,445)"/>
</svg>
